<svg width="101" height="55" viewBox="0 0 101 55" fill="none" xmlns="http://www.w3.org/2000/svg">
<path d="M39.0258 31.9034C39.2857 32.5855 39.708 33.089 39.9354 33.1215H37.1092C37.2717 32.9591 37.2879 32.2769 37.028 31.5785L36.086 29.2234H31.262L30.3037 31.5948C30.0601 32.2769 30.0763 32.9591 30.2388 33.1215H27.9324C28.1435 33.089 28.5821 32.5855 28.8419 31.9034L32.4152 22.4666C32.6589 21.7682 32.6264 21.1023 32.4477 20.9399H34.9165L39.0258 31.9034ZM31.7006 27.859H35.6312L33.6821 22.759L31.7006 27.859ZM44.1755 33.3489C41.6904 33.3489 40.6509 31.4323 40.6509 28.6224V26.1374C40.6509 25.0979 40.1961 24.8705 39.985 24.7405C40.9758 24.6756 41.6092 24.4157 42.3564 23.9609V28.6224C42.3564 30.7177 42.9573 32.082 44.5815 32.082C46.1083 32.082 47.0016 30.7014 47.0016 28.6224V26.1374C47.0016 25.0979 46.5306 24.8705 46.3357 24.7405C47.3265 24.6756 47.9599 24.4157 48.7071 23.9609V31.6597C48.7071 32.3906 48.9507 33.0241 49.1456 33.1215H47.4564C47.294 33.0403 47.0828 32.553 47.0341 31.9358C46.3682 32.8292 45.3774 33.3489 44.1755 33.3489ZM54.5459 33.3489C52.2233 33.3489 50.729 31.5135 50.729 28.6549C50.729 25.8125 52.2233 23.9609 54.5459 23.9609C55.829 23.9609 56.8036 24.5944 57.3883 25.6176V22.0768C57.3883 21.0373 56.9173 20.8099 56.7224 20.68C57.6969 20.615 58.3303 20.3551 59.0775 19.9004V31.6597C59.0775 32.3906 59.3211 33.0241 59.5323 33.1215H57.8268C57.6644 33.0403 57.4533 32.553 57.4045 31.9358C56.7386 32.8292 55.7478 33.3489 54.5459 33.3489ZM52.4506 28.6549C52.4506 30.7339 53.3602 32.0983 54.9195 32.0983C56.4787 32.0983 57.3883 30.7339 57.3883 28.6549C57.3883 26.5921 56.4787 25.1953 54.9195 25.1953C53.3602 25.1953 52.4506 26.5921 52.4506 28.6549ZM64.627 33.3489C62.548 33.3489 61.1511 32.0495 61.1511 30.474C61.1511 28.8011 62.418 27.6154 64.8056 27.6154H67.5993V27.388C67.5993 26.0724 66.5761 25.1953 65.2279 25.1953C64.1235 25.1953 63.084 25.5689 62.3043 26.446V24.7893C63.084 24.2208 64.4158 23.9609 65.4391 23.9609C67.4206 23.9609 69.3047 25.244 69.3047 27.7778V31.6597C69.3047 32.3906 69.5484 33.0241 69.7433 33.1215H68.0054C67.8267 33.0403 67.6643 32.5693 67.6156 31.9846C66.9659 32.7479 65.9588 33.3489 64.627 33.3489ZM62.8728 30.4091C62.8728 31.2861 63.7012 32.0983 65.0493 32.0983C66.5761 32.0983 67.5668 30.8963 67.5993 29.2396V28.7199H65.2929C63.5875 28.7199 62.8728 29.4345 62.8728 30.4091ZM78.4401 26.5272C77.6767 25.6826 76.7996 25.1953 75.6789 25.1953C73.6324 25.1953 72.6741 26.7383 72.6741 28.6549C72.6741 30.5715 73.6324 32.0983 75.7277 32.0983C76.6859 32.0983 77.6118 31.7247 78.4401 30.8801V32.3906C77.693 32.9753 76.5235 33.3489 75.3703 33.3489C72.5604 33.3489 70.9524 31.4161 70.9524 28.6549C70.9524 25.8937 72.5604 23.9609 75.3703 23.9609C76.5235 23.9609 77.693 24.3345 78.4401 24.903V26.5272ZM80.1061 33.1215C80.301 33.0241 80.5609 32.3906 80.5446 31.6597V26.1374C80.5446 25.0979 80.0898 24.8705 79.8787 24.7405C80.8695 24.6756 81.5029 24.4157 82.25 23.9609V31.6597C82.25 32.3906 82.4937 33.0241 82.6886 33.1215H80.1061ZM80.1386 21.8819C80.1386 21.2809 80.6258 20.7937 81.2268 20.7937C81.8278 20.7937 82.315 21.2809 82.315 21.8819C82.315 22.4829 81.8278 22.9539 81.2268 22.9539C80.6258 22.9539 80.1386 22.4829 80.1386 21.8819ZM88.4345 33.3489C86.8915 33.3489 85.2835 32.2932 85.2835 29.6132V25.4227H84.1628V24.1883H85.2835V22.8889C85.2835 21.8494 84.8125 21.622 84.6014 21.4921C85.5921 21.4271 86.2256 21.1672 86.9727 20.7125V24.1883H89.3116V25.8775C89.2304 25.7151 88.8081 25.4389 88.0934 25.4389H86.9727V29.6132C86.989 31.2699 87.7361 32.0983 88.7269 32.0983C89.2629 32.0983 89.7501 31.8871 90.075 31.5623V33.0241C89.7339 33.1865 89.1817 33.3489 88.4345 33.3489ZM92.8613 36.5974C92.504 36.5974 92.0329 36.5324 91.4807 36.2725V34.8107C91.8543 35.2493 92.3253 35.3629 92.6339 35.3629C93.511 35.3629 94.047 34.5346 94.3556 33.6575L94.6317 32.8129L91.2533 25.3577C91.0097 24.838 90.6361 24.2858 90.3925 24.1883H93.2511C93.0724 24.3345 93.04 25.0329 93.2674 25.7151L95.5088 31.0263L97.9126 25.7151C98.1887 25.0329 98.2537 24.367 98.1075 24.1883H100.398C100.17 24.2858 99.7805 24.838 99.5531 25.3577L95.8986 33.5925C95.1515 35.3467 94.2906 36.5974 92.8613 36.5974Z" fill="white"/>
<path d="M2.83721 19.7951L0.605352 26.1017C-1.05189 30.7844 0.783538 35.9888 5.01172 38.5958V38.5959L10.6929 29.704L7.18473 19.7951H2.83721Z" fill="white"/>
<path d="M18.2234 34.8008L20.4552 28.4943C22.1125 23.8115 20.277 18.6071 16.0489 16L10.3676 24.8919L13.8759 34.8008H18.2234Z" fill="white"/>
</svg>
