<svg width="43" height="43" viewBox="0 0 43 43" fill="none" xmlns="http://www.w3.org/2000/svg">
<rect width="43" height="43" rx="3" fill="#202020"/>
<g clip-path="url(#clip0_40_265)">
<rect x="8.72222" y="8.72222" width="24.5556" height="24.5556" rx="12.2778" fill="#11110C"/>
<rect x="8.72222" y="8.72222" width="24.5556" height="24.5556" rx="12.2778" stroke="#323232" stroke-width="1.44444"/>
<path d="M26.913 17.1451C26.7731 16.8648 26.5533 16.5043 26.2135 16.224C26.0737 16.0838 25.8938 15.9837 25.654 15.9436C25.4741 15.9036 25.2943 15.8435 25.0944 15.8435H25.0545C24.8146 15.8435 24.355 15.8835 24.0952 16.264C23.9553 16.4042 23.9153 16.6245 23.9553 16.8648C23.9953 17.045 24.0952 17.1852 24.2751 17.2252C24.2751 17.2252 24.315 17.2252 24.415 17.2653C24.375 17.2653 24.315 17.3654 24.315 17.3654C24.2151 17.5056 23.9953 17.7259 23.3558 17.7259H23.3158C22.9961 17.7259 22.7163 17.6257 22.3965 17.2252C22.2167 16.9449 22.0768 16.5243 22.0768 15.8034C22.0768 15.443 22.0368 15.1025 21.9369 14.8823C21.8969 14.702 21.757 14.5619 21.6172 14.4617C21.5172 14.3616 21.3773 14.3216 21.1975 14.2815C21.0176 14.1413 20.7379 14.1413 20.518 14.1413C20.2382 14.1413 20.0984 14.1814 20.0184 14.3216C20.0184 14.3216 20.0184 14.3616 19.9784 14.3616H19.7986C19.6587 14.3616 19.5188 14.4017 19.3789 14.4017C19.0991 14.4417 18.9593 14.5418 18.7794 14.682C18.7394 14.7221 18.5995 14.8622 18.5396 15.0425C18.4996 15.1826 18.5396 15.2828 18.5796 15.3228C18.5796 15.3228 18.5796 15.3629 18.6195 15.3629C18.7194 15.2627 18.8593 15.2227 19.0792 15.2227C19.3589 15.2227 19.7786 15.3629 19.8985 15.5832C20.0784 15.9036 20.0384 16.1439 19.9984 16.4643C19.8985 17.2453 19.5788 17.6658 18.9792 17.7459H18.6595C18.1999 17.7459 17.8801 17.6057 17.7402 17.3254C17.6403 17.2252 17.6403 17.1852 17.6403 17.1852C17.6403 17.1852 17.6803 17.1852 17.7402 17.1451C17.9201 17.045 18.02 16.9649 18.06 16.7847C18.0999 16.6044 18.06 16.3641 17.9201 16.1839C17.6803 15.9436 17.3605 15.8235 16.9608 15.8235C16.721 15.8235 16.5412 15.8635 16.4013 15.9236C15.8417 16.0638 15.442 16.4242 15.1223 17.1251C14.8825 17.5857 14.7026 18.2265 14.6626 18.8673C14.6227 19.5081 14.6227 20.0688 14.6626 20.5695C14.7626 21.3905 14.9024 21.9112 15.0823 22.4118C15.2622 22.9725 15.5419 23.4731 15.8217 23.9337C15.9216 24.1139 15.9616 24.2141 16.0016 24.2541C16.0416 24.2141 16.1015 24.154 16.1415 24.0739C16.2414 23.9738 16.5611 23.5733 16.6411 23.4331C16.781 23.333 16.9209 23.0726 17.0008 22.8724L17.0408 22.7722L17.1407 22.8724C17.2406 22.9725 17.2806 23.0526 17.2806 23.1928C17.2806 23.333 17.2406 23.4731 17.1807 23.7535C17.0807 24.0338 16.9408 24.3943 16.761 24.6747C16.761 24.7147 16.721 24.7748 16.721 24.7748C16.6211 24.955 16.5811 25.0551 16.6211 25.0952C16.6611 25.0952 16.801 25.0551 16.9408 24.915C17.1207 24.8349 17.4404 24.5545 17.8401 23.9537C18.1599 23.5332 18.3997 23.0726 18.6195 22.572L18.6595 22.4719L18.7594 22.5119C18.7994 22.5119 18.8593 22.552 18.8593 22.612C18.8993 22.7122 18.8993 22.7923 18.8993 22.9325C18.8593 23.2529 18.6595 23.7134 18.5396 24.0338C18.2998 24.5946 17.8401 25.2354 17.5204 25.6959C17.5204 25.6959 17.4205 25.7961 17.4205 25.8361C17.4604 25.8762 17.5204 25.9363 17.6003 25.9763L17.7402 26.0764C18.1999 26.4369 18.6195 26.7773 19.1591 27.0376C19.5788 27.2779 20.4381 27.7385 20.9976 27.8587C21.5572 27.7185 22.4165 27.2579 22.8362 27.0376C23.3958 26.7172 23.7954 26.4369 24.2551 26.0764L24.395 25.9763C24.4949 25.9363 24.5349 25.8361 24.5748 25.8361C24.5748 25.8361 24.5349 25.7961 24.5349 25.736L24.4949 25.6959C24.1751 25.2354 23.7155 24.5946 23.4757 24.0338C23.3358 23.7134 23.1559 23.2128 23.116 22.9325C23.116 22.7923 23.116 22.6921 23.1559 22.612C23.1559 22.572 23.1959 22.572 23.2559 22.5119C23.2958 22.4719 23.3558 22.4719 23.3558 22.4719L23.3958 22.572C23.6356 23.0726 23.8954 23.4932 24.1751 23.9537C24.5948 24.5545 24.9146 24.8349 25.0545 24.915C25.1943 25.0151 25.3342 25.0952 25.3742 25.0952H25.4342C25.4741 25.0551 25.4342 24.955 25.3342 24.7748C25.3342 24.7347 25.2943 24.6747 25.2943 24.6747C25.1144 24.3542 24.9745 24.0338 24.8746 23.7535C24.7747 23.4731 24.7347 23.333 24.7347 23.1928C24.7347 23.0526 24.7747 22.9124 24.8746 22.8724L24.9745 22.8323L25.0145 22.9325C25.1144 23.1127 25.2943 23.393 25.3342 23.4932C25.4342 23.6333 25.7539 23.9938 25.8338 24.134L25.9737 24.2741C26.0137 24.2341 26.0736 24.134 26.1536 23.9938V23.9537C26.4334 23.4932 26.6532 22.9925 26.893 22.4318C27.0729 21.8711 27.2128 21.4105 27.3127 20.5895C27.3526 20.0889 27.4126 19.5281 27.3127 18.8873C27.3127 18.2465 27.1928 17.6057 26.913 17.1451Z" fill="url(#paint0_radial_40_265)"/>
</g>
<defs>
<radialGradient id="paint0_radial_40_265" cx="0" cy="0" r="1" gradientUnits="userSpaceOnUse" gradientTransform="translate(14.9918 16.6159) scale(14.0536 14.0825)">
<stop stop-color="#20C4F4"/>
<stop offset="0.304" stop-color="#09B4F0"/>
<stop offset="0.5" stop-color="#00AEEF"/>
<stop offset="0.8" stop-color="#0092C8"/>
<stop offset="1" stop-color="#006E98"/>
</radialGradient>
<clipPath id="clip0_40_265">
<rect width="26" height="26" fill="white" transform="translate(8 8)"/>
</clipPath>
</defs>
</svg>
