<svg width="48" height="17" viewBox="0 0 48 17" fill="none" xmlns="http://www.w3.org/2000/svg">
<path d="M6.34 0.0399992V13.5L6.8 13.48C7.72 13.44 8.66 13.16 8.82 12.8V16H0.1V12.8C0.26 13.16 1.22 13.46 2.12 13.48L2.64 13.5V5.26C2.64 4.1 2 2.92 0.82 2.38C2.36 2.32 4.82 1.62 6.34 0.0399992ZM11.92 12.54C12.9 12.54 13.72 13.36 13.72 14.36C13.72 15.36 12.9 16.18 11.92 16.18C10.92 16.18 10.1 15.36 10.1 14.36C10.1 13.36 10.92 12.54 11.92 12.54ZM21.1647 0.299999C24.2447 0.299999 26.7847 2.04 26.7847 4.76C26.7847 6.16 25.9647 7.18 24.9247 7.88C26.2047 8.64 27.2247 9.78 27.2247 11.36C27.2247 14.18 24.5047 16 21.1647 16C17.8047 16 15.0847 14.18 15.0847 11.36C15.0847 9.78 16.1647 8.64 17.5447 7.88C16.4047 7.18 15.5247 6.16 15.5247 4.76C15.5247 2.04 18.0847 0.299999 21.1647 0.299999ZM18.7847 11.36C18.7847 12.64 19.7047 13.5 21.1647 13.5C22.6047 13.5 23.5247 12.64 23.5247 11.36C23.5247 9.98 22.5247 9.2 21.1647 9.2C19.7847 9.2 18.7847 9.98 18.7847 11.36ZM19.0847 4.76C19.0847 5.92 19.8647 6.7 21.0847 6.7C22.2847 6.7 23.0847 5.92 23.0847 4.76C23.0847 3.58 22.2647 2.8 21.0847 2.8C19.9047 2.8 19.0847 3.58 19.0847 4.76ZM32.4161 -2.38419e-07C34.4961 -2.38419e-07 36.1961 1.54 36.1961 4.46C36.1961 7.36 34.4961 8.9 32.4161 8.9C30.3161 8.9 28.6161 7.36 28.6161 4.46C28.6161 1.54 30.3161 -2.38419e-07 32.4161 -2.38419e-07ZM30.8361 4.46C30.8361 6.28 31.4761 7.42 32.4161 7.42C33.3361 7.42 33.9961 6.28 33.9961 4.46C33.9961 2.62 33.3361 1.48 32.4161 1.48C31.4761 1.48 30.8361 2.62 30.8361 4.46ZM32.8361 16L40.9161 -2.38419e-07H43.1361L35.0561 16H32.8361ZM39.7761 11.54C39.7761 8.64 41.4761 7.1 43.5561 7.1C45.6561 7.1 47.3561 8.64 47.3561 11.56C47.3561 14.46 45.6561 16 43.5561 16C41.4761 16 39.7761 14.46 39.7761 11.54ZM41.9761 11.54C41.9761 13.38 42.6361 14.52 43.5761 14.52C44.4961 14.52 45.1561 13.38 45.1561 11.54C45.1561 9.72 44.4961 8.58 43.5761 8.58C42.6361 8.58 41.9761 9.72 41.9761 11.54Z" fill="#F9F1E1"/>
</svg>
