<svg width="321" height="118" viewBox="0 0 321 118" fill="none" xmlns="http://www.w3.org/2000/svg">
<g clip-path="url(#clip0_1_3374)">
<path d="M7.69531 13.7287H2.65625L1.64844 16.5959H0.15625L4.38281 5.15843H5.98438L10.1953 16.5959H8.70312L7.69531 13.7287ZM3.13281 12.4553H7.23438L5.20312 6.48656H5.17188L3.13281 12.4553ZM11.2891 5.15843H12.5703V16.5959H11.2891V5.15843ZM14.2734 5.15843H15.5547V16.5959H14.2734V5.15843ZM20.8984 16.8225C19.6693 16.8225 18.6953 16.4293 17.9766 15.6428C17.2578 14.8511 16.8984 13.8095 16.8984 12.5178C16.8984 11.2261 17.2578 10.1871 17.9766 9.40062C18.6953 8.60895 19.6693 8.21312 20.8984 8.21312C22.1224 8.21312 23.0911 8.60895 23.8047 9.40062C24.5234 10.1923 24.8828 11.2313 24.8828 12.5178C24.8828 13.8043 24.5234 14.8433 23.8047 15.635C23.0911 16.4267 22.1224 16.8225 20.8984 16.8225ZM20.8984 15.6975C21.7682 15.6975 22.4349 15.398 22.8984 14.7991C23.3672 14.2001 23.6016 13.4397 23.6016 12.5178C23.6016 11.5959 23.3672 10.8355 22.8984 10.2366C22.4349 9.63239 21.7682 9.33031 20.8984 9.33031C20.0182 9.33031 19.3438 9.63239 18.875 10.2366C18.4115 10.8355 18.1797 11.5959 18.1797 12.5178C18.1797 13.4397 18.4115 14.2001 18.875 14.7991C19.3438 15.398 20.0182 15.6975 20.8984 15.6975ZM31.9688 11.3772C31.9531 11.1376 31.8984 10.9032 31.8047 10.6741C31.7161 10.4449 31.5833 10.2261 31.4062 10.0178C31.2344 9.80947 30.9974 9.64281 30.6953 9.51781C30.3984 9.39281 30.0547 9.33031 29.6641 9.33031C29.2891 9.33031 28.9479 9.39281 28.6406 9.51781C28.3385 9.6376 28.0859 9.80166 27.8828 10.01C27.6849 10.2131 27.5156 10.4553 27.375 10.7366C27.2396 11.0126 27.1406 11.2991 27.0781 11.5959C27.0208 11.8928 26.9922 12.2001 26.9922 12.5178C26.9922 12.9188 27.0417 13.3017 27.1406 13.6662C27.2396 14.0308 27.3906 14.3694 27.5938 14.6819C27.7969 14.9892 28.0755 15.2366 28.4297 15.4241C28.7891 15.6063 29.2005 15.6975 29.6641 15.6975C30.0599 15.6975 30.4062 15.635 30.7031 15.51C31.0052 15.385 31.2422 15.2183 31.4141 15.01C31.5859 14.7965 31.7161 14.5725 31.8047 14.3381C31.8984 14.0985 31.9531 13.8485 31.9688 13.5881H33.25C33.1927 14.5256 32.8307 15.2991 32.1641 15.9084C31.4974 16.5178 30.6641 16.8225 29.6641 16.8225C28.4766 16.8225 27.5208 16.4267 26.7969 15.635C26.0729 14.8433 25.7109 13.8043 25.7109 12.5178C25.7109 11.2313 26.0729 10.1923 26.7969 9.40062C27.5208 8.60895 28.4766 8.21312 29.6641 8.21312C30.6536 8.21312 31.474 8.50999 32.125 9.10374C32.776 9.69229 33.151 10.4501 33.25 11.3772H31.9688ZM39.625 10.5178C39.625 9.72614 39.0703 9.33031 37.9609 9.33031C37.1953 9.33031 36.6562 9.4527 36.3438 9.69749C36.0312 9.94229 35.8542 10.3642 35.8125 10.9631H34.5312C34.5729 10.1246 34.8724 9.45791 35.4297 8.96312C35.9922 8.46312 36.8359 8.21312 37.9609 8.21312C38.2839 8.21312 38.5833 8.23916 38.8594 8.29124C39.1406 8.34333 39.4089 8.43187 39.6641 8.55687C39.9193 8.68187 40.1354 8.84072 40.3125 9.03343C40.4896 9.22614 40.6302 9.47354 40.7344 9.77562C40.8438 10.0725 40.8984 10.411 40.8984 10.7912V14.7522C40.8984 15.1063 40.9583 15.3563 41.0781 15.5022C41.1979 15.6428 41.4479 15.6923 41.8281 15.6506V16.5491C41.5729 16.6324 41.3229 16.6741 41.0781 16.6741C40.6667 16.6741 40.349 16.5985 40.125 16.4475C39.901 16.2912 39.7344 15.9996 39.625 15.5725H39.5938C39.0312 16.4058 38.1068 16.8225 36.8203 16.8225C36.0026 16.8225 35.349 16.609 34.8594 16.1819C34.375 15.7548 34.1328 15.1949 34.1328 14.5022C34.1328 14.1376 34.1875 13.8173 34.2969 13.5412C34.4115 13.2652 34.5599 13.036 34.7422 12.8537C34.9245 12.6715 35.1745 12.51 35.4922 12.3694C35.8099 12.2235 36.1276 12.109 36.4453 12.0256C36.763 11.9423 37.1562 11.8563 37.625 11.7678C38.3854 11.6272 38.9089 11.4787 39.1953 11.3225C39.4818 11.1662 39.625 10.898 39.625 10.5178ZM36.9531 15.6975C37.7604 15.6975 38.4062 15.51 38.8906 15.135C39.3802 14.76 39.625 14.1975 39.625 13.4475V12.0803C39.4167 12.2886 38.7865 12.5022 37.7344 12.7209C36.9062 12.898 36.3125 13.1116 35.9531 13.3616C35.5938 13.6116 35.4141 13.9709 35.4141 14.4397C35.4141 15.2782 35.9271 15.6975 36.9531 15.6975ZM46.1797 9.55687H44.5781V14.4709C44.5781 14.9136 44.7005 15.2027 44.9453 15.3381C45.1901 15.4735 45.6016 15.5204 46.1797 15.4787V16.5959C45.8932 16.6584 45.5729 16.6897 45.2188 16.6897C44.6146 16.6897 44.1432 16.536 43.8047 16.2287C43.4714 15.9162 43.3047 15.372 43.3047 14.5959V9.55687H42.1016V8.43968H43.3047V5.71312H44.5781V8.43968H46.1797V9.55687ZM48.3203 6.85374C48.1276 6.85374 47.9453 6.78343 47.7734 6.64281C47.6068 6.49697 47.5234 6.30947 47.5234 6.08031C47.5234 5.85114 47.6068 5.66624 47.7734 5.52562C47.9401 5.38499 48.1224 5.31468 48.3203 5.31468C48.5234 5.31468 48.7057 5.38499 48.8672 5.52562C49.0339 5.66624 49.1172 5.85114 49.1172 6.08031C49.1172 6.30947 49.0339 6.49697 48.8672 6.64281C48.7057 6.78343 48.5234 6.85374 48.3203 6.85374ZM47.6797 8.43968H48.9609V16.5959H47.6797V8.43968ZM54.4141 16.8225C53.1849 16.8225 52.2109 16.4293 51.4922 15.6428C50.7734 14.8511 50.4141 13.8095 50.4141 12.5178C50.4141 11.2261 50.7734 10.1871 51.4922 9.40062C52.2109 8.60895 53.1849 8.21312 54.4141 8.21312C55.638 8.21312 56.6068 8.60895 57.3203 9.40062C58.0391 10.1923 58.3984 11.2313 58.3984 12.5178C58.3984 13.8043 58.0391 14.8433 57.3203 15.635C56.6068 16.4267 55.638 16.8225 54.4141 16.8225ZM54.4141 15.6975C55.2839 15.6975 55.9505 15.398 56.4141 14.7991C56.8828 14.2001 57.1172 13.4397 57.1172 12.5178C57.1172 11.5959 56.8828 10.8355 56.4141 10.2366C55.9505 9.63239 55.2839 9.33031 54.4141 9.33031C53.5339 9.33031 52.8594 9.63239 52.3906 10.2366C51.9271 10.8355 51.6953 11.5959 51.6953 12.5178C51.6953 13.4397 51.9271 14.2001 52.3906 14.7991C52.8594 15.398 53.5339 15.6975 54.4141 15.6975ZM63.6953 8.21312C64.0755 8.21312 64.4271 8.26781 64.75 8.37718C65.0729 8.48135 65.362 8.6402 65.6172 8.85374C65.8724 9.06208 66.0703 9.34333 66.2109 9.69749C66.3568 10.0465 66.4297 10.4475 66.4297 10.9006V16.5959H65.1484V11.2209C65.1484 10.6532 65.0052 10.1975 64.7188 9.85374C64.4323 9.50479 63.9844 9.33031 63.375 9.33031C62.6615 9.33031 62.0807 9.53604 61.6328 9.94749C61.1901 10.3537 60.9688 10.8746 60.9688 11.51V16.5959H59.6953V8.43968H60.9688V9.40843H61.0078C61.2578 9.06989 61.6068 8.78604 62.0547 8.55687C62.5078 8.3277 63.0547 8.21312 63.6953 8.21312Z" fill="#EDEDED"/>
<rect width="337" height="83" transform="translate(0 29.5959)" fill="#454545"/>
<g clip-path="url(#clip1_1_3374)">
<rect width="280" height="88" transform="translate(-24.8311 29.4484)" fill="white"/>
<g clip-path="url(#clip2_1_3374)">
<rect width="1" height="1131" transform="translate(-113.088 117.968) rotate(-45)" fill="#4B4844"/>
<rect width="5" height="1131" transform="translate(-112.381 117.261) rotate(-45)" fill="#090909"/>
<rect width="1" height="1131" transform="translate(-108.846 113.725) rotate(-45)" fill="#4B4844"/>
<rect width="5" height="1131" transform="translate(-108.139 113.018) rotate(-45)" fill="#090909"/>
<rect width="1" height="1131" transform="translate(-104.603 109.483) rotate(-45)" fill="#4B4844"/>
<rect width="5" height="1131" transform="translate(-103.896 108.775) rotate(-45)" fill="#090909"/>
<rect width="1" height="1131" transform="translate(-100.36 105.24) rotate(-45)" fill="#4B4844"/>
<rect width="5" height="1131" transform="translate(-99.6533 104.533) rotate(-45)" fill="#090909"/>
<rect width="1" height="1131" transform="translate(-96.1178 100.997) rotate(-45)" fill="#4B4844"/>
<rect width="5" height="1131" transform="translate(-95.4106 100.29) rotate(-45)" fill="#090909"/>
<rect width="1" height="1131" transform="translate(-91.8751 96.7546) rotate(-45)" fill="#4B4844"/>
<rect width="5" height="1131" transform="translate(-91.1681 96.0475) rotate(-45)" fill="#090909"/>
<rect width="1" height="1131" transform="translate(-87.6324 92.5119) rotate(-45)" fill="#4B4844"/>
<rect width="5" height="1131" transform="translate(-86.9254 91.8048) rotate(-45)" fill="#090909"/>
<rect width="1" height="1131" transform="translate(-83.3899 88.2693) rotate(-45)" fill="#4B4844"/>
<rect width="5" height="1131" transform="translate(-82.6827 87.5622) rotate(-45)" fill="#090909"/>
<rect width="1" height="1131" transform="translate(-79.1472 84.0267) rotate(-45)" fill="#4B4844"/>
<rect width="5" height="1131" transform="translate(-78.4401 83.3196) rotate(-45)" fill="#090909"/>
<rect width="1" height="1131" transform="translate(-74.9045 79.784) rotate(-45)" fill="#4B4844"/>
<rect width="5" height="1131" transform="translate(-74.1975 79.0769) rotate(-45)" fill="#090909"/>
<rect width="1" height="1131" transform="translate(-70.662 75.5414) rotate(-45)" fill="#4B4844"/>
<rect width="5" height="1131" transform="translate(-69.9548 74.8343) rotate(-45)" fill="#090909"/>
<rect width="1" height="1131" transform="translate(-66.4193 71.2988) rotate(-45)" fill="#4B4844"/>
<rect width="5" height="1131" transform="translate(-65.7122 70.5916) rotate(-45)" fill="#090909"/>
<rect width="1" height="1131" transform="translate(-62.1766 67.0561) rotate(-45)" fill="#4B4844"/>
<rect width="5" height="1131" transform="translate(-61.4696 66.349) rotate(-45)" fill="#090909"/>
<rect width="1" height="1131" transform="translate(-57.934 62.8135) rotate(-45)" fill="#4B4844"/>
<rect width="5" height="1131" transform="translate(-57.2269 62.1064) rotate(-45)" fill="#090909"/>
<rect width="1" height="1131" transform="translate(-53.6914 58.5708) rotate(-45)" fill="#4B4844"/>
<rect width="5" height="1131" transform="translate(-52.9843 57.8637) rotate(-45)" fill="#090909"/>
<rect width="1" height="1131" transform="translate(-49.4487 54.3282) rotate(-45)" fill="#4B4844"/>
<rect width="5" height="1131" transform="translate(-48.7416 53.6211) rotate(-45)" fill="#090909"/>
<rect width="1" height="1131" transform="translate(-45.2061 50.0855) rotate(-45)" fill="#4B4844"/>
<rect width="5" height="1131" transform="translate(-44.499 49.3784) rotate(-45)" fill="#090909"/>
<rect width="1" height="1131" transform="translate(-40.9635 45.8429) rotate(-45)" fill="#4B4844"/>
<rect width="5" height="1131" transform="translate(-40.2563 45.1358) rotate(-45)" fill="#090909"/>
<rect width="1" height="1131" transform="translate(-36.7208 41.6003) rotate(-45)" fill="#4B4844"/>
<rect width="5" height="1131" transform="translate(-36.0137 40.8932) rotate(-45)" fill="#090909"/>
<rect width="1" height="1131" transform="translate(-32.4781 37.3576) rotate(-45)" fill="#4B4844"/>
<rect width="5" height="1131" transform="translate(-31.7711 36.6505) rotate(-45)" fill="#090909"/>
<rect width="1" height="1131" transform="translate(-28.2355 33.115) rotate(-45)" fill="#4B4844"/>
<rect width="5" height="1131" transform="translate(-27.5284 32.4079) rotate(-45)" fill="#090909"/>
<rect width="1" height="1131" transform="translate(-23.9929 28.8723) rotate(-45)" fill="#4B4844"/>
<rect width="5" height="1131" transform="translate(-23.2858 28.1652) rotate(-45)" fill="#090909"/>
<rect width="1" height="1131" transform="translate(-19.7502 24.6297) rotate(-45)" fill="#4B4844"/>
<rect width="5" height="1131" transform="translate(-19.0431 23.9226) rotate(-45)" fill="#090909"/>
<rect width="1" height="1131" transform="translate(-15.5076 20.3871) rotate(-45)" fill="#4B4844"/>
<rect width="5" height="1131" transform="translate(-14.8005 19.6799) rotate(-45)" fill="#090909"/>
<rect width="1" height="1131" transform="translate(-11.265 16.1444) rotate(-45)" fill="#4B4844"/>
<rect width="5" height="1131" transform="translate(-10.5579 15.4373) rotate(-45)" fill="#090909"/>
<rect width="1" height="1131" transform="translate(-7.02234 11.9018) rotate(-45)" fill="#4B4844"/>
<rect width="5" height="1131" transform="translate(-6.31519 11.1947) rotate(-45)" fill="#090909"/>
<rect width="1" height="1131" transform="translate(-2.77966 7.65913) rotate(-45)" fill="#4B4844"/>
<rect width="5" height="1131" transform="translate(-2.07263 6.95203) rotate(-45)" fill="#090909"/>
<rect width="1" height="1131" transform="translate(1.46301 3.41649) rotate(-45)" fill="#4B4844"/>
<rect width="5" height="1131" transform="translate(2.17004 2.70938) rotate(-45)" fill="#090909"/>
<rect width="1" height="1131" transform="translate(5.70557 -0.826141) rotate(-45)" fill="#4B4844"/>
<rect width="5" height="1131" transform="translate(6.41272 -1.53325) rotate(-45)" fill="#090909"/>
<rect width="1" height="1131" transform="translate(9.94824 -5.06879) rotate(-45)" fill="#4B4844"/>
<rect width="5" height="1131" transform="translate(10.6554 -5.77589) rotate(-45)" fill="#090909"/>
<rect width="1" height="1131" transform="translate(14.1909 -9.31143) rotate(-45)" fill="#4B4844"/>
<rect width="5" height="1131" transform="translate(14.8979 -10.0185) rotate(-45)" fill="#090909"/>
<rect width="1" height="1131" transform="translate(18.4335 -13.5541) rotate(-45)" fill="#4B4844"/>
<rect width="5" height="1131" transform="translate(19.1406 -14.2612) rotate(-45)" fill="#090909"/>
<rect width="1" height="1131" transform="translate(22.6761 -17.7967) rotate(-45)" fill="#4B4844"/>
<rect width="5" height="1131" transform="translate(23.3833 -18.5038) rotate(-45)" fill="#090909"/>
<rect width="1" height="1131" transform="translate(26.9188 -22.0394) rotate(-45)" fill="#4B4844"/>
<rect width="5" height="1131" transform="translate(27.6259 -22.7465) rotate(-45)" fill="#090909"/>
<rect width="1" height="1131" transform="translate(31.1615 -26.282) rotate(-45)" fill="#4B4844"/>
<rect width="5" height="1131" transform="translate(31.8685 -26.9891) rotate(-45)" fill="#090909"/>
<rect width="1" height="1131" transform="translate(35.4041 -30.5246) rotate(-45)" fill="#4B4844"/>
<rect width="5" height="1131" transform="translate(36.1112 -31.2317) rotate(-45)" fill="#090909"/>
<rect width="1" height="1131" transform="translate(39.6467 -34.7673) rotate(-45)" fill="#4B4844"/>
<rect width="5" height="1131" transform="translate(40.3539 -35.4744) rotate(-45)" fill="#090909"/>
<rect width="1" height="1131" transform="translate(43.8894 -39.0099) rotate(-45)" fill="#4B4844"/>
<rect width="5" height="1131" transform="translate(44.5964 -39.717) rotate(-45)" fill="#090909"/>
<rect width="1" height="1131" transform="translate(48.132 -43.2526) rotate(-45)" fill="#4B4844"/>
<rect width="5" height="1131" transform="translate(48.8391 -43.9597) rotate(-45)" fill="#090909"/>
<rect width="1" height="1131" transform="translate(52.3746 -47.4952) rotate(-45)" fill="#4B4844"/>
<rect width="5" height="1131" transform="translate(53.0818 -48.2023) rotate(-45)" fill="#090909"/>
<rect width="1" height="1131" transform="translate(56.6173 -51.7378) rotate(-45)" fill="#4B4844"/>
<rect width="5" height="1131" transform="translate(57.3243 -52.4449) rotate(-45)" fill="#090909"/>
<rect width="1" height="1131" transform="translate(60.86 -55.9805) rotate(-45)" fill="#4B4844"/>
<rect width="5" height="1131" transform="translate(61.567 -56.6876) rotate(-45)" fill="#090909"/>
<rect width="1" height="1131" transform="translate(65.1025 -60.2231) rotate(-45)" fill="#4B4844"/>
<rect width="5" height="1131" transform="translate(65.8097 -60.9302) rotate(-45)" fill="#090909"/>
<rect width="1" height="1131" transform="translate(69.3452 -64.4658) rotate(-45)" fill="#4B4844"/>
<rect width="5" height="1131" transform="translate(70.0524 -65.1729) rotate(-45)" fill="#090909"/>
<rect width="1" height="1131" transform="translate(73.5879 -68.7084) rotate(-45)" fill="#4B4844"/>
<rect width="5" height="1131" transform="translate(74.2949 -69.4155) rotate(-45)" fill="#090909"/>
<rect width="1" height="1131" transform="translate(77.8304 -72.951) rotate(-45)" fill="#4B4844"/>
<rect width="5" height="1131" transform="translate(78.5376 -73.6581) rotate(-45)" fill="#090909"/>
<rect width="1" height="1131" transform="translate(82.0731 -77.1937) rotate(-45)" fill="#4B4844"/>
<rect width="5" height="1131" transform="translate(82.7803 -77.9008) rotate(-45)" fill="#090909"/>
<rect width="1" height="1131" transform="translate(86.3158 -81.4363) rotate(-45)" fill="#4B4844"/>
<rect width="5" height="1131" transform="translate(87.0228 -82.1434) rotate(-45)" fill="#090909"/>
<rect width="1" height="1131" transform="translate(90.5585 -85.679) rotate(-45)" fill="#4B4844"/>
<rect width="5" height="1131" transform="translate(91.2655 -86.3861) rotate(-45)" fill="#090909"/>
<rect width="1" height="1131" transform="translate(94.801 -89.9216) rotate(-45)" fill="#4B4844"/>
<rect width="5" height="1131" transform="translate(95.5082 -90.6287) rotate(-45)" fill="#090909"/>
<rect width="1" height="1131" transform="translate(99.0437 -94.1642) rotate(-45)" fill="#4B4844"/>
<rect width="5" height="1131" transform="translate(99.7509 -94.8714) rotate(-45)" fill="#090909"/>
<rect width="1" height="1131" transform="translate(103.286 -98.4069) rotate(-45)" fill="#4B4844"/>
<rect width="5" height="1131" transform="translate(103.993 -99.114) rotate(-45)" fill="#090909"/>
<rect width="1" height="1131" transform="translate(107.529 -102.65) rotate(-45)" fill="#4B4844"/>
<rect width="5" height="1131" transform="translate(108.236 -103.357) rotate(-45)" fill="#090909"/>
<rect width="1" height="1131" transform="translate(111.772 -106.892) rotate(-45)" fill="#4B4844"/>
<rect width="5" height="1131" transform="translate(112.479 -107.599) rotate(-45)" fill="#090909"/>
<rect width="1" height="1131" transform="translate(116.014 -111.135) rotate(-45)" fill="#4B4844"/>
<rect width="5" height="1131" transform="translate(116.721 -111.842) rotate(-45)" fill="#090909"/>
<rect width="1" height="1131" transform="translate(120.257 -115.377) rotate(-45)" fill="#4B4844"/>
<rect width="5" height="1131" transform="translate(120.964 -116.085) rotate(-45)" fill="#090909"/>
<rect width="1" height="1131" transform="translate(124.5 -119.62) rotate(-45)" fill="#4B4844"/>
<rect width="5" height="1131" transform="translate(125.207 -120.327) rotate(-45)" fill="#090909"/>
<rect width="1" height="1131" transform="translate(128.742 -123.863) rotate(-45)" fill="#4B4844"/>
<rect width="5" height="1131" transform="translate(129.449 -124.57) rotate(-45)" fill="#090909"/>
<rect width="1" height="1131" transform="translate(132.985 -128.105) rotate(-45)" fill="#4B4844"/>
<rect width="5" height="1131" transform="translate(133.692 -128.812) rotate(-45)" fill="#090909"/>
<rect width="1" height="1131" transform="translate(137.227 -132.348) rotate(-45)" fill="#4B4844"/>
<rect width="5" height="1131" transform="translate(137.935 -133.055) rotate(-45)" fill="#090909"/>
<rect width="1" height="1131" transform="translate(141.47 -136.591) rotate(-45)" fill="#4B4844"/>
<rect width="5" height="1131" transform="translate(142.177 -137.298) rotate(-45)" fill="#090909"/>
<rect width="1" height="1131" transform="translate(145.713 -140.833) rotate(-45)" fill="#4B4844"/>
<rect width="5" height="1131" transform="translate(146.42 -141.54) rotate(-45)" fill="#090909"/>
<rect width="1" height="1131" transform="translate(149.955 -145.076) rotate(-45)" fill="#4B4844"/>
<rect width="5" height="1131" transform="translate(150.662 -145.783) rotate(-45)" fill="#090909"/>
<rect width="1" height="1131" transform="translate(154.198 -149.319) rotate(-45)" fill="#4B4844"/>
<rect width="5" height="1131" transform="translate(154.905 -150.026) rotate(-45)" fill="#090909"/>
<rect width="1" height="1131" transform="translate(158.441 -153.561) rotate(-45)" fill="#4B4844"/>
<rect width="5" height="1131" transform="translate(159.148 -154.268) rotate(-45)" fill="#090909"/>
<rect width="1" height="1131" transform="translate(162.683 -157.804) rotate(-45)" fill="#4B4844"/>
<rect width="5" height="1131" transform="translate(163.39 -158.511) rotate(-45)" fill="#090909"/>
<rect width="1" height="1131" transform="translate(166.926 -162.047) rotate(-45)" fill="#4B4844"/>
<rect width="5" height="1131" transform="translate(167.633 -162.754) rotate(-45)" fill="#090909"/>
<rect width="1" height="1131" transform="translate(171.169 -166.289) rotate(-45)" fill="#4B4844"/>
<rect width="5" height="1131" transform="translate(171.876 -166.996) rotate(-45)" fill="#090909"/>
<rect width="1" height="1131" transform="translate(175.411 -170.532) rotate(-45)" fill="#4B4844"/>
<rect width="5" height="1131" transform="translate(176.118 -171.239) rotate(-45)" fill="#090909"/>
<rect width="1" height="1131" transform="translate(179.654 -174.774) rotate(-45)" fill="#4B4844"/>
<rect width="5" height="1131" transform="translate(180.361 -175.482) rotate(-45)" fill="#090909"/>
<rect width="1" height="1131" transform="translate(183.896 -179.017) rotate(-45)" fill="#4B4844"/>
<rect width="5" height="1131" transform="translate(184.604 -179.724) rotate(-45)" fill="#090909"/>
<rect width="1" height="1131" transform="translate(188.139 -183.26) rotate(-45)" fill="#4B4844"/>
<rect width="5" height="1131" transform="translate(188.846 -183.967) rotate(-45)" fill="#090909"/>
<rect width="1" height="1131" transform="translate(192.382 -187.502) rotate(-45)" fill="#4B4844"/>
<rect width="5" height="1131" transform="translate(193.089 -188.209) rotate(-45)" fill="#090909"/>
<rect width="1" height="1131" transform="translate(196.624 -191.745) rotate(-45)" fill="#4B4844"/>
<rect width="5" height="1131" transform="translate(197.332 -192.452) rotate(-45)" fill="#090909"/>
<rect width="1" height="1131" transform="translate(200.867 -195.988) rotate(-45)" fill="#4B4844"/>
<rect width="5" height="1131" transform="translate(201.574 -196.695) rotate(-45)" fill="#090909"/>
<rect width="1" height="1131" transform="translate(205.11 -200.23) rotate(-45)" fill="#4B4844"/>
<rect width="5" height="1131" transform="translate(205.817 -200.937) rotate(-45)" fill="#090909"/>
<rect width="1" height="1131" transform="translate(209.352 -204.473) rotate(-45)" fill="#4B4844"/>
<rect width="5" height="1131" transform="translate(210.059 -205.18) rotate(-45)" fill="#090909"/>
<rect width="1" height="1131" transform="translate(213.595 -208.716) rotate(-45)" fill="#4B4844"/>
<rect width="5" height="1131" transform="translate(214.302 -209.423) rotate(-45)" fill="#090909"/>
<rect width="1" height="1131" transform="translate(217.838 -212.958) rotate(-45)" fill="#4B4844"/>
<rect width="5" height="1131" transform="translate(218.545 -213.665) rotate(-45)" fill="#090909"/>
<rect width="1" height="1131" transform="translate(222.08 -217.201) rotate(-45)" fill="#4B4844"/>
<rect width="5" height="1131" transform="translate(222.787 -217.908) rotate(-45)" fill="#090909"/>
<rect width="1" height="1131" transform="translate(226.323 -221.443) rotate(-45)" fill="#4B4844"/>
<rect width="5" height="1131" transform="translate(227.03 -222.151) rotate(-45)" fill="#090909"/>
<rect width="1" height="1131" transform="translate(230.566 -225.686) rotate(-45)" fill="#4B4844"/>
<rect width="5" height="1131" transform="translate(231.273 -226.393) rotate(-45)" fill="#090909"/>
<rect width="1" height="1131" transform="translate(234.808 -229.929) rotate(-45)" fill="#4B4844"/>
<rect width="5" height="1131" transform="translate(235.515 -230.636) rotate(-45)" fill="#090909"/>
<rect width="1" height="1131" transform="translate(239.051 -234.171) rotate(-45)" fill="#4B4844"/>
<rect width="5" height="1131" transform="translate(239.758 -234.879) rotate(-45)" fill="#090909"/>
<rect width="1" height="1131" transform="translate(243.293 -238.414) rotate(-45)" fill="#4B4844"/>
<rect width="5" height="1131" transform="translate(244.001 -239.121) rotate(-45)" fill="#090909"/>
<rect width="1" height="1131" transform="translate(247.536 -242.657) rotate(-45)" fill="#4B4844"/>
<rect width="5" height="1131" transform="translate(248.243 -243.364) rotate(-45)" fill="#090909"/>
<rect width="1" height="1131" transform="translate(251.779 -246.899) rotate(-45)" fill="#4B4844"/>
<rect width="5" height="1131" transform="translate(252.486 -247.606) rotate(-45)" fill="#090909"/>
</g>
<path d="M18.3428 64.5284C18.3428 63.1222 19.1221 62.0792 20.6807 61.3995V61.3644C19.4795 60.7257 18.8789 59.8497 18.8789 58.7365C18.8789 58.0392 19.0869 57.4327 19.5029 56.9171C19.9189 56.4015 20.4727 56.0148 21.1641 55.757C21.8555 55.4991 22.6318 55.3702 23.4932 55.3702C24.3545 55.3702 25.1279 55.4991 25.8135 55.757C26.5049 56.0148 27.0586 56.4015 27.4746 56.9171C27.8906 57.4327 28.0986 58.0392 28.0986 58.7365C28.0986 59.838 27.498 60.714 26.2969 61.3644V61.3995C27.8555 62.0909 28.6348 63.1339 28.6348 64.5284C28.6348 65.3546 28.4004 66.0636 27.9316 66.6554C27.4688 67.2472 26.8535 67.6837 26.0859 67.965C25.3242 68.2462 24.46 68.3868 23.4932 68.3868C22.5264 68.3868 21.6592 68.2462 20.8916 67.965C20.1299 67.6837 19.5146 67.2472 19.0459 66.6554C18.5771 66.0636 18.3428 65.3546 18.3428 64.5284ZM22.0869 60.1163C22.4209 60.4093 22.8896 60.5558 23.4932 60.5558C24.0967 60.5558 24.5654 60.4093 24.8994 60.1163C25.2334 59.8234 25.4004 59.4542 25.4004 59.0089C25.4004 58.5812 25.2305 58.2208 24.8906 57.9279C24.5566 57.629 24.0908 57.4796 23.4932 57.4796C22.8955 57.4796 22.4268 57.629 22.0869 57.9279C21.7529 58.2208 21.5859 58.5812 21.5859 59.0089C21.5859 59.4542 21.7529 59.8234 22.0869 60.1163ZM21.9639 65.5743C22.3447 65.9259 22.8545 66.1017 23.4932 66.1017C24.1318 66.1017 24.6387 65.9259 25.0137 65.5743C25.3887 65.2169 25.5762 64.7745 25.5762 64.2472C25.5762 63.7374 25.3887 63.3068 25.0137 62.9552C24.6387 62.6036 24.1318 62.4279 23.4932 62.4279C22.8545 62.4279 22.3447 62.6036 21.9639 62.9552C21.5889 63.3068 21.4014 63.7374 21.4014 64.2472C21.4014 64.7745 21.5889 65.2169 21.9639 65.5743ZM29.7285 55.6603H38.8515V57.9454C38.166 58.4962 37.5654 59.1613 37.0498 59.9406C36.54 60.7198 36.1328 61.5577 35.8281 62.4542C35.5293 63.3507 35.3066 64.2677 35.1601 65.2052C35.0195 66.1427 34.9492 67.1066 34.9492 68.0968H31.706C31.706 66.1339 32.0752 64.2296 32.8134 62.3839C33.5576 60.5323 34.4921 59.1261 35.6171 58.1652V58.1212H29.7285V55.6603ZM43.8124 62.5861C43.2675 62.5861 42.7782 62.4923 42.3446 62.3048C41.9169 62.1115 41.5712 61.8478 41.3075 61.5138C41.0439 61.1798 40.8417 60.799 40.7011 60.3712C40.5663 59.9435 40.4989 59.4835 40.4989 58.9913C40.4989 58.4933 40.5663 58.0304 40.7011 57.6027C40.8417 57.1691 41.0439 56.7853 41.3075 56.4513C41.5712 56.1173 41.9169 55.8536 42.3446 55.6603C42.7782 55.4669 43.2675 55.3702 43.8124 55.3702C44.3632 55.3702 44.8525 55.4669 45.2802 55.6603C45.7079 55.8478 46.0507 56.1115 46.3085 56.4513C46.5722 56.7853 46.7714 57.1691 46.9062 57.6027C47.0409 58.0304 47.1083 58.4933 47.1083 58.9913C47.1083 59.4894 47.0409 59.9523 46.9062 60.38C46.7714 60.8019 46.5722 61.1798 46.3085 61.5138C46.0507 61.8478 45.7079 62.1115 45.2802 62.3048C44.8525 62.4923 44.3632 62.5861 43.8124 62.5861ZM52.1269 55.6603L45.5966 68.0968H43.7948L50.3251 55.6603H52.1269ZM43.8124 60.9689C44.1698 60.9689 44.4159 60.8165 44.5507 60.5118C44.6913 60.2072 44.7616 59.7003 44.7616 58.9913C44.7616 58.2823 44.6913 57.7726 44.5507 57.462C44.4159 57.1456 44.1698 56.9874 43.8124 56.9874C43.455 56.9874 43.203 57.1456 43.0566 57.462C42.9101 57.7784 42.8368 58.2882 42.8368 58.9913C42.8368 59.6945 42.9071 60.2013 43.0478 60.5118C43.1943 60.8165 43.4491 60.9689 43.8124 60.9689ZM52.1269 68.3868C51.582 68.3868 51.0927 68.2902 50.6591 68.0968C50.2314 67.9093 49.8857 67.6486 49.622 67.3146C49.3583 66.9806 49.1562 66.5997 49.0155 66.172C48.8808 65.7384 48.8134 65.2755 48.8134 64.7833C48.8134 64.2853 48.8808 63.8224 49.0155 63.3947C49.1562 62.9611 49.3583 62.5773 49.622 62.2433C49.8857 61.9093 50.2314 61.6486 50.6591 61.4611C51.0927 61.2677 51.582 61.171 52.1269 61.171C52.6777 61.171 53.1669 61.2677 53.5946 61.4611C54.0224 61.6486 54.3652 61.9093 54.623 62.2433C54.8866 62.5773 55.0859 62.9611 55.2206 63.3947C55.3554 63.8224 55.4228 64.2853 55.4228 64.7833C55.4228 65.2814 55.3554 65.7443 55.2206 66.172C55.0859 66.5939 54.8866 66.9747 54.623 67.3146C54.3652 67.6486 54.0224 67.9093 53.5946 68.0968C53.1669 68.2902 52.6777 68.3868 52.1269 68.3868ZM52.1269 66.7609C52.4843 66.7609 52.7333 66.6085 52.8739 66.3038C53.0146 65.9991 53.0849 65.4923 53.0849 64.7833C53.0849 64.0743 53.0146 63.5646 52.8739 63.254C52.7333 62.9435 52.4843 62.7882 52.1269 62.7882C51.7636 62.7882 51.5087 62.9464 51.3622 63.2628C51.2216 63.5734 51.1513 64.0802 51.1513 64.7833C51.1513 65.4865 51.2216 65.9933 51.3622 66.3038C51.5087 66.6085 51.7636 66.7609 52.1269 66.7609Z" fill="white"/>
<path d="M23.1875 83.4249C23.6562 83.5395 24.0078 83.6307 24.2422 83.6984C24.4818 83.7609 24.7812 83.8546 25.1406 83.9796C25.5052 84.0994 25.776 84.214 25.9531 84.3234C26.1302 84.4327 26.3333 84.5786 26.5625 84.7609C26.7917 84.9432 26.9557 85.1411 27.0547 85.3546C27.1589 85.5629 27.2474 85.8156 27.3203 86.1124C27.3984 86.4093 27.4375 86.74 27.4375 87.1046C27.4375 87.5317 27.3568 87.9353 27.1953 88.3156C27.0339 88.6906 26.7917 89.0317 26.4688 89.339C26.1458 89.6411 25.7135 89.8807 25.1719 90.0577C24.6302 90.2348 24.0104 90.3234 23.3125 90.3234C21.9167 90.3234 20.7604 89.964 19.8438 89.2452C18.9271 88.5265 18.4297 87.5291 18.3516 86.2531H19.7891C19.8307 86.6593 19.9245 87.0265 20.0703 87.3546C20.2214 87.6827 20.4323 87.977 20.7031 88.2374C20.9792 88.4926 21.3359 88.6906 21.7734 88.8312C22.2161 88.9718 22.7292 89.0421 23.3125 89.0421C24.2396 89.0421 24.9193 88.8624 25.3516 88.5031C25.7839 88.1385 26 87.6723 26 87.1046C26 86.9067 25.987 86.7296 25.9609 86.5734C25.9401 86.4171 25.8932 86.2739 25.8203 86.1437C25.7526 86.0083 25.6797 85.8937 25.6016 85.7999C25.5234 85.701 25.4062 85.6072 25.25 85.5187C25.099 85.4249 24.9505 85.3468 24.8047 85.2843C24.6589 85.2166 24.4583 85.1463 24.2031 85.0734C23.9479 84.9952 23.7057 84.9275 23.4766 84.8702C23.2526 84.8129 22.9583 84.7426 22.5938 84.6593C22.3021 84.5916 22.0495 84.5291 21.8359 84.4718C21.6276 84.4145 21.3828 84.3364 21.1016 84.2374C20.8203 84.1385 20.5807 84.0369 20.3828 83.9327C20.1901 83.8234 19.987 83.6853 19.7734 83.5187C19.5651 83.352 19.3958 83.1749 19.2656 82.9874C19.1406 82.7947 19.0365 82.5656 18.9531 82.2999C18.8698 82.0343 18.8281 81.7478 18.8281 81.4406C18.8281 80.5239 19.1693 79.7947 19.8516 79.2531C20.5391 78.7062 21.5052 78.4327 22.75 78.4327C23.9896 78.4327 24.9948 78.7452 25.7656 79.3702C26.5417 79.9952 26.9766 80.8885 27.0703 82.0499H25.6328C25.5234 81.2687 25.237 80.6853 24.7734 80.2999C24.3099 79.9093 23.6354 79.714 22.75 79.714C21.9583 79.714 21.3464 79.8546 20.9141 80.1359C20.487 80.4171 20.2734 80.7999 20.2734 81.2843C20.2734 81.5656 20.3177 81.8103 20.4062 82.0187C20.5 82.227 20.612 82.3963 20.7422 82.5265C20.8776 82.6515 21.0703 82.7687 21.3203 82.8781C21.5703 82.9874 21.8047 83.0734 22.0234 83.1359C22.2422 83.1932 22.5312 83.2661 22.8906 83.3546C23.0208 83.3859 23.1198 83.4093 23.1875 83.4249ZM31.9294 90.0968V79.9406H28.1247V78.6593H37.1794V79.9406H33.3747V90.0968H31.9294ZM46.3119 89.5577C45.4577 90.0682 44.4811 90.3234 43.3822 90.3234C42.2832 90.3234 41.3067 90.0682 40.4525 89.5577C39.5983 89.0421 38.9395 88.3338 38.4759 87.4327C38.0124 86.5317 37.7806 85.5109 37.7806 84.3702C37.7806 83.2296 38.0124 82.2114 38.4759 81.3156C38.9395 80.4145 39.5983 79.7088 40.4525 79.1984C41.3067 78.6879 42.2832 78.4327 43.3822 78.4327C44.4811 78.4327 45.4577 78.6879 46.3119 79.1984C47.166 79.7088 47.8249 80.4145 48.2884 81.3156C48.752 82.2114 48.9837 83.2296 48.9837 84.3702C48.9837 85.5109 48.752 86.5317 48.2884 87.4327C47.8249 88.3338 47.166 89.0421 46.3119 89.5577ZM43.3822 89.0421C44.0801 89.0421 44.6999 88.9171 45.2416 88.6671C45.7832 88.4119 46.2181 88.0656 46.5462 87.6281C46.8744 87.1853 47.1218 86.6906 47.2884 86.1437C47.4551 85.5916 47.5384 85.0004 47.5384 84.3702C47.5384 83.74 47.4551 83.1515 47.2884 82.6046C47.1218 82.0525 46.8744 81.5603 46.5462 81.1281C46.2181 80.6906 45.7832 80.3468 45.2416 80.0968C44.6999 79.8416 44.0801 79.714 43.3822 79.714C42.8197 79.714 42.3067 79.7973 41.8431 79.964C41.3796 80.1307 40.9864 80.3572 40.6634 80.6437C40.3457 80.9301 40.0749 81.2713 39.8509 81.6671C39.6322 82.0629 39.4707 82.4874 39.3666 82.9406C39.2676 83.3937 39.2181 83.8702 39.2181 84.3702C39.2181 84.8702 39.2676 85.3468 39.3666 85.7999C39.4707 86.2531 39.6322 86.6801 39.8509 87.0812C40.0749 87.477 40.3457 87.8208 40.6634 88.1124C40.9864 88.3989 41.3796 88.6254 41.8431 88.7921C42.3067 88.9588 42.8197 89.0421 43.3822 89.0421ZM59.3037 82.4327C59.2569 82.1932 59.1866 81.9588 59.0928 81.7296C59.0043 81.5004 58.8689 81.2609 58.6866 81.0109C58.5095 80.7609 58.2985 80.5447 58.0537 80.3624C57.8142 80.1749 57.5043 80.0213 57.1241 79.9015C56.7491 79.7765 56.335 79.714 55.8819 79.714C55.3558 79.714 54.8741 79.8025 54.4366 79.9796C54.0043 80.1567 53.6397 80.3937 53.3428 80.6906C53.0511 80.9874 52.8037 81.3364 52.6006 81.7374C52.3975 82.1385 52.2491 82.5603 52.1553 83.0031C52.0668 83.4406 52.0225 83.8963 52.0225 84.3702C52.0225 84.8442 52.0668 85.3025 52.1553 85.7452C52.2491 86.1879 52.3975 86.6124 52.6006 87.0187C52.8037 87.4197 53.0511 87.7687 53.3428 88.0656C53.6397 88.3624 54.0043 88.5994 54.4366 88.7765C54.8741 88.9536 55.3558 89.0421 55.8819 89.0421C56.3454 89.0421 56.7673 88.9822 57.1475 88.8624C57.5277 88.7374 57.8428 88.576 58.0928 88.3781C58.348 88.1801 58.5642 87.9458 58.7412 87.6749C58.9235 87.4041 59.0564 87.1281 59.1397 86.8468C59.2282 86.5656 59.2829 86.2739 59.3037 85.9718H60.7412C60.6527 86.8208 60.4053 87.5708 59.9991 88.2218C59.5928 88.8728 59.0329 89.3859 58.3194 89.7609C57.611 90.1359 56.7985 90.3234 55.8819 90.3234C54.8506 90.3234 53.9314 90.0682 53.1241 89.5577C52.3168 89.0473 51.6918 88.3416 51.2491 87.4406C50.8064 86.5343 50.585 85.5109 50.585 84.3702C50.585 83.2348 50.8064 82.2166 51.2491 81.3156C51.6918 80.4145 52.3168 79.7088 53.1241 79.1984C53.9366 78.6879 54.8558 78.4327 55.8819 78.4327C56.5642 78.4327 57.197 78.5395 57.7803 78.7531C58.3636 78.9614 58.8584 79.2504 59.2647 79.6202C59.6709 79.9848 60.0017 80.4093 60.2569 80.8937C60.5121 81.3728 60.6735 81.8859 60.7412 82.4327H59.3037ZM62.6784 78.6593H64.1237V84.7843L69.8659 78.6593H71.6237L67.1316 83.4093L71.9441 90.0968H70.2644L66.1706 84.4015L64.1237 86.5577V90.0968H62.6784V78.6593ZM76.9281 83.4249C77.3969 83.5395 77.7484 83.6307 77.9828 83.6984C78.2224 83.7609 78.5219 83.8546 78.8812 83.9796C79.2458 84.0994 79.5167 84.214 79.6937 84.3234C79.8708 84.4327 80.074 84.5786 80.3031 84.7609C80.5323 84.9432 80.6964 85.1411 80.7953 85.3546C80.8995 85.5629 80.988 85.8156 81.0609 86.1124C81.1391 86.4093 81.1781 86.74 81.1781 87.1046C81.1781 87.5317 81.0974 87.9353 80.9359 88.3156C80.7745 88.6906 80.5323 89.0317 80.2094 89.339C79.8865 89.6411 79.4542 89.8807 78.9125 90.0577C78.3708 90.2348 77.751 90.3234 77.0531 90.3234C75.6573 90.3234 74.501 89.964 73.5844 89.2452C72.6677 88.5265 72.1703 87.5291 72.0922 86.2531H73.5297C73.5714 86.6593 73.6651 87.0265 73.8109 87.3546C73.962 87.6827 74.1729 87.977 74.4437 88.2374C74.7198 88.4926 75.0766 88.6906 75.5141 88.8312C75.9568 88.9718 76.4698 89.0421 77.0531 89.0421C77.9802 89.0421 78.6599 88.8624 79.0922 88.5031C79.5245 88.1385 79.7406 87.6723 79.7406 87.1046C79.7406 86.9067 79.7276 86.7296 79.7016 86.5734C79.6807 86.4171 79.6339 86.2739 79.5609 86.1437C79.4932 86.0083 79.4203 85.8937 79.3422 85.7999C79.2641 85.701 79.1469 85.6072 78.9906 85.5187C78.8396 85.4249 78.6911 85.3468 78.5453 85.2843C78.3995 85.2166 78.199 85.1463 77.9437 85.0734C77.6885 84.9952 77.4464 84.9275 77.2172 84.8702C76.9932 84.8129 76.699 84.7426 76.3344 84.6593C76.0427 84.5916 75.7901 84.5291 75.5766 84.4718C75.3682 84.4145 75.1234 84.3364 74.8422 84.2374C74.5609 84.1385 74.3214 84.0369 74.1234 83.9327C73.9307 83.8234 73.7276 83.6853 73.5141 83.5187C73.3057 83.352 73.1365 83.1749 73.0062 82.9874C72.8812 82.7947 72.7771 82.5656 72.6937 82.2999C72.6104 82.0343 72.5687 81.7478 72.5687 81.4406C72.5687 80.5239 72.9099 79.7947 73.5922 79.2531C74.2797 78.7062 75.2458 78.4327 76.4906 78.4327C77.7302 78.4327 78.7354 78.7452 79.5062 79.3702C80.2823 79.9952 80.7172 80.8885 80.8109 82.0499H79.3734C79.2641 81.2687 78.9776 80.6853 78.5141 80.2999C78.0505 79.9093 77.376 79.714 76.4906 79.714C75.699 79.714 75.087 79.8546 74.6547 80.1359C74.2276 80.4171 74.0141 80.7999 74.0141 81.2843C74.0141 81.5656 74.0583 81.8103 74.1469 82.0187C74.2406 82.227 74.3526 82.3963 74.4828 82.5265C74.6182 82.6515 74.8109 82.7687 75.0609 82.8781C75.3109 82.9874 75.5453 83.0734 75.7641 83.1359C75.9828 83.1932 76.2719 83.2661 76.6312 83.3546C76.7615 83.3859 76.8604 83.4093 76.9281 83.4249Z" fill="white"/>
</g>
<g clip-path="url(#clip3_1_3374)">
<rect width="150" height="88" transform="matrix(-1 0 0 1 404 29.5959)" fill="white"/>
<g clip-path="url(#clip4_1_3374)">
<rect width="1" height="1131" transform="matrix(-0.707107 -0.707107 -0.707107 0.707107 492.257 118.115)" fill="#8A4C29"/>
<rect width="5" height="1131" transform="matrix(-0.707107 -0.707107 -0.707107 0.707107 491.55 117.408)" fill="#090909"/>
<rect width="1" height="1131" transform="matrix(-0.707107 -0.707107 -0.707107 0.707107 488.015 113.873)" fill="#8A4C29"/>
<rect width="5" height="1131" transform="matrix(-0.707107 -0.707107 -0.707107 0.707107 487.307 113.166)" fill="#090909"/>
<rect width="1" height="1131" transform="matrix(-0.707107 -0.707107 -0.707107 0.707107 483.772 109.63)" fill="#8A4C29"/>
<rect width="5" height="1131" transform="matrix(-0.707107 -0.707107 -0.707107 0.707107 483.065 108.923)" fill="#090909"/>
<rect width="1" height="1131" transform="matrix(-0.707107 -0.707107 -0.707107 0.707107 479.529 105.387)" fill="#8A4C29"/>
<rect width="5" height="1131" transform="matrix(-0.707107 -0.707107 -0.707107 0.707107 478.822 104.68)" fill="#090909"/>
<rect width="1" height="1131" transform="matrix(-0.707107 -0.707107 -0.707107 0.707107 475.287 101.145)" fill="#8A4C29"/>
<rect width="5" height="1131" transform="matrix(-0.707107 -0.707107 -0.707107 0.707107 474.58 100.438)" fill="#090909"/>
<rect width="1" height="1131" transform="matrix(-0.707107 -0.707107 -0.707107 0.707107 471.044 96.9022)" fill="#8A4C29"/>
<rect width="5" height="1131" transform="matrix(-0.707107 -0.707107 -0.707107 0.707107 470.337 96.1951)" fill="#090909"/>
<rect width="1" height="1131" transform="matrix(-0.707107 -0.707107 -0.707107 0.707107 466.801 92.6595)" fill="#8A4C29"/>
<rect width="5" height="1131" transform="matrix(-0.707107 -0.707107 -0.707107 0.707107 466.094 91.9524)" fill="#090909"/>
<rect width="1" height="1131" transform="matrix(-0.707107 -0.707107 -0.707107 0.707107 462.559 88.4169)" fill="#8A4C29"/>
<rect width="5" height="1131" transform="matrix(-0.707107 -0.707107 -0.707107 0.707107 461.852 87.7098)" fill="#090909"/>
<rect width="1" height="1131" transform="matrix(-0.707107 -0.707107 -0.707107 0.707107 458.316 84.1743)" fill="#8A4C29"/>
<rect width="5" height="1131" transform="matrix(-0.707107 -0.707107 -0.707107 0.707107 457.609 83.4671)" fill="#090909"/>
<rect width="1" height="1131" transform="matrix(-0.707107 -0.707107 -0.707107 0.707107 454.073 79.9316)" fill="#8A4C29"/>
<rect width="5" height="1131" transform="matrix(-0.707107 -0.707107 -0.707107 0.707107 453.366 79.2245)" fill="#090909"/>
<rect width="1" height="1131" transform="matrix(-0.707107 -0.707107 -0.707107 0.707107 449.831 75.689)" fill="#8A4C29"/>
<rect width="5" height="1131" transform="matrix(-0.707107 -0.707107 -0.707107 0.707107 449.124 74.9819)" fill="#090909"/>
<rect width="1" height="1131" transform="matrix(-0.707107 -0.707107 -0.707107 0.707107 445.588 71.4463)" fill="#8A4C29"/>
<rect width="5" height="1131" transform="matrix(-0.707107 -0.707107 -0.707107 0.707107 444.881 70.7392)" fill="#090909"/>
<rect width="1" height="1131" transform="matrix(-0.707107 -0.707107 -0.707107 0.707107 441.346 67.2037)" fill="#8A4C29"/>
<rect width="5" height="1131" transform="matrix(-0.707107 -0.707107 -0.707107 0.707107 440.639 66.4966)" fill="#090909"/>
<rect width="1" height="1131" transform="matrix(-0.707107 -0.707107 -0.707107 0.707107 437.103 62.961)" fill="#8A4C29"/>
<rect width="5" height="1131" transform="matrix(-0.707107 -0.707107 -0.707107 0.707107 436.396 62.2539)" fill="#090909"/>
<rect width="1" height="1131" transform="matrix(-0.707107 -0.707107 -0.707107 0.707107 432.86 58.7184)" fill="#8A4C29"/>
<rect width="5" height="1131" transform="matrix(-0.707107 -0.707107 -0.707107 0.707107 432.153 58.0113)" fill="#090909"/>
<rect width="1" height="1131" transform="matrix(-0.707107 -0.707107 -0.707107 0.707107 428.618 54.4758)" fill="#8A4C29"/>
<rect width="5" height="1131" transform="matrix(-0.707107 -0.707107 -0.707107 0.707107 427.911 53.7687)" fill="#090909"/>
<rect width="1" height="1131" transform="matrix(-0.707107 -0.707107 -0.707107 0.707107 424.375 50.2331)" fill="#8A4C29"/>
<rect width="5" height="1131" transform="matrix(-0.707107 -0.707107 -0.707107 0.707107 423.668 49.526)" fill="#090909"/>
<rect width="1" height="1131" transform="matrix(-0.707107 -0.707107 -0.707107 0.707107 420.132 45.9905)" fill="#8A4C29"/>
<rect width="5" height="1131" transform="matrix(-0.707107 -0.707107 -0.707107 0.707107 419.425 45.2834)" fill="#090909"/>
<rect width="1" height="1131" transform="matrix(-0.707107 -0.707107 -0.707107 0.707107 415.89 41.7478)" fill="#8A4C29"/>
<rect width="5" height="1131" transform="matrix(-0.707107 -0.707107 -0.707107 0.707107 415.183 41.0407)" fill="#090909"/>
<rect width="1" height="1131" transform="matrix(-0.707107 -0.707107 -0.707107 0.707107 411.647 37.5052)" fill="#8A4C29"/>
<rect width="5" height="1131" transform="matrix(-0.707107 -0.707107 -0.707107 0.707107 410.94 36.7981)" fill="#090909"/>
<rect width="1" height="1131" transform="matrix(-0.707107 -0.707107 -0.707107 0.707107 407.404 33.2626)" fill="#8A4C29"/>
<rect width="5" height="1131" transform="matrix(-0.707107 -0.707107 -0.707107 0.707107 406.697 32.5555)" fill="#090909"/>
<rect width="1" height="1131" transform="matrix(-0.707107 -0.707107 -0.707107 0.707107 403.162 29.0199)" fill="#8A4C29"/>
<rect width="5" height="1131" transform="matrix(-0.707107 -0.707107 -0.707107 0.707107 402.455 28.3128)" fill="#090909"/>
<rect width="1" height="1131" transform="matrix(-0.707107 -0.707107 -0.707107 0.707107 398.919 24.7773)" fill="#8A4C29"/>
<rect width="5" height="1131" transform="matrix(-0.707107 -0.707107 -0.707107 0.707107 398.212 24.0702)" fill="#090909"/>
<rect width="1" height="1131" transform="matrix(-0.707107 -0.707107 -0.707107 0.707107 394.677 20.5346)" fill="#8A4C29"/>
<rect width="5" height="1131" transform="matrix(-0.707107 -0.707107 -0.707107 0.707107 393.969 19.8275)" fill="#090909"/>
<rect width="1" height="1131" transform="matrix(-0.707107 -0.707107 -0.707107 0.707107 390.434 16.292)" fill="#8A4C29"/>
<rect width="5" height="1131" transform="matrix(-0.707107 -0.707107 -0.707107 0.707107 389.727 15.5849)" fill="#090909"/>
<rect width="1" height="1131" transform="matrix(-0.707107 -0.707107 -0.707107 0.707107 386.191 12.0494)" fill="#8A4C29"/>
<rect width="5" height="1131" transform="matrix(-0.707107 -0.707107 -0.707107 0.707107 385.484 11.3423)" fill="#090909"/>
<rect width="1" height="1131" transform="matrix(-0.707107 -0.707107 -0.707107 0.707107 381.949 7.80672)" fill="#8A4C29"/>
<rect width="5" height="1131" transform="matrix(-0.707107 -0.707107 -0.707107 0.707107 381.242 7.09961)" fill="#090909"/>
<rect width="1" height="1131" transform="matrix(-0.707107 -0.707107 -0.707107 0.707107 377.706 3.56407)" fill="#8A4C29"/>
<rect width="5" height="1131" transform="matrix(-0.707107 -0.707107 -0.707107 0.707107 376.999 2.85696)" fill="#090909"/>
<rect width="1" height="1131" transform="matrix(-0.707107 -0.707107 -0.707107 0.707107 373.463 -0.678558)" fill="#8A4C29"/>
<rect width="5" height="1131" transform="matrix(-0.707107 -0.707107 -0.707107 0.707107 372.756 -1.38567)" fill="#090909"/>
<rect width="1" height="1131" transform="matrix(-0.707107 -0.707107 -0.707107 0.707107 369.221 -4.9212)" fill="#8A4C29"/>
<rect width="5" height="1131" transform="matrix(-0.707107 -0.707107 -0.707107 0.707107 368.514 -5.62831)" fill="#090909"/>
<rect width="1" height="1131" transform="matrix(-0.707107 -0.707107 -0.707107 0.707107 364.978 -9.16385)" fill="#8A4C29"/>
<rect width="5" height="1131" transform="matrix(-0.707107 -0.707107 -0.707107 0.707107 364.271 -9.87096)" fill="#090909"/>
<rect width="1" height="1131" transform="matrix(-0.707107 -0.707107 -0.707107 0.707107 360.735 -13.4065)" fill="#8A4C29"/>
<rect width="5" height="1131" transform="matrix(-0.707107 -0.707107 -0.707107 0.707107 360.028 -14.1136)" fill="#090909"/>
<rect width="1" height="1131" transform="matrix(-0.707107 -0.707107 -0.707107 0.707107 356.493 -17.6491)" fill="#8A4C29"/>
<rect width="5" height="1131" transform="matrix(-0.707107 -0.707107 -0.707107 0.707107 355.786 -18.3562)" fill="#090909"/>
<rect width="1" height="1131" transform="matrix(-0.707107 -0.707107 -0.707107 0.707107 352.25 -21.8918)" fill="#8A4C29"/>
<rect width="5" height="1131" transform="matrix(-0.707107 -0.707107 -0.707107 0.707107 351.543 -22.5989)" fill="#090909"/>
<rect width="1" height="1131" transform="matrix(-0.707107 -0.707107 -0.707107 0.707107 348.007 -26.1344)" fill="#8A4C29"/>
<rect width="5" height="1131" transform="matrix(-0.707107 -0.707107 -0.707107 0.707107 347.3 -26.8415)" fill="#090909"/>
<rect width="1" height="1131" transform="matrix(-0.707107 -0.707107 -0.707107 0.707107 343.765 -30.3771)" fill="#8A4C29"/>
<rect width="5" height="1131" transform="matrix(-0.707107 -0.707107 -0.707107 0.707107 343.058 -31.0842)" fill="#090909"/>
<rect width="1" height="1131" transform="matrix(-0.707107 -0.707107 -0.707107 0.707107 339.522 -34.6197)" fill="#8A4C29"/>
<rect width="5" height="1131" transform="matrix(-0.707107 -0.707107 -0.707107 0.707107 338.815 -35.3268)" fill="#090909"/>
<rect width="1" height="1131" transform="matrix(-0.707107 -0.707107 -0.707107 0.707107 335.28 -38.8623)" fill="#8A4C29"/>
<rect width="5" height="1131" transform="matrix(-0.707107 -0.707107 -0.707107 0.707107 334.573 -39.5694)" fill="#090909"/>
<rect width="1" height="1131" transform="matrix(-0.707107 -0.707107 -0.707107 0.707107 331.037 -43.105)" fill="#8A4C29"/>
<rect width="5" height="1131" transform="matrix(-0.707107 -0.707107 -0.707107 0.707107 330.33 -43.8121)" fill="#090909"/>
<rect width="1" height="1131" transform="matrix(-0.707107 -0.707107 -0.707107 0.707107 326.794 -47.3476)" fill="#8A4C29"/>
<rect width="5" height="1131" transform="matrix(-0.707107 -0.707107 -0.707107 0.707107 326.087 -48.0547)" fill="#090909"/>
<rect width="1" height="1131" transform="matrix(-0.707107 -0.707107 -0.707107 0.707107 322.552 -51.5903)" fill="#8A4C29"/>
<rect width="5" height="1131" transform="matrix(-0.707107 -0.707107 -0.707107 0.707107 321.845 -52.2974)" fill="#090909"/>
<rect width="1" height="1131" transform="matrix(-0.707107 -0.707107 -0.707107 0.707107 318.309 -55.8329)" fill="#8A4C29"/>
<rect width="5" height="1131" transform="matrix(-0.707107 -0.707107 -0.707107 0.707107 317.602 -56.54)" fill="#090909"/>
<rect width="1" height="1131" transform="matrix(-0.707107 -0.707107 -0.707107 0.707107 314.066 -60.0755)" fill="#8A4C29"/>
<rect width="5" height="1131" transform="matrix(-0.707107 -0.707107 -0.707107 0.707107 313.359 -60.7826)" fill="#090909"/>
<rect width="1" height="1131" transform="matrix(-0.707107 -0.707107 -0.707107 0.707107 309.824 -64.3182)" fill="#8A4C29"/>
<rect width="5" height="1131" transform="matrix(-0.707107 -0.707107 -0.707107 0.707107 309.117 -65.0253)" fill="#090909"/>
<rect width="1" height="1131" transform="matrix(-0.707107 -0.707107 -0.707107 0.707107 305.581 -68.5608)" fill="#8A4C29"/>
<rect width="5" height="1131" transform="matrix(-0.707107 -0.707107 -0.707107 0.707107 304.874 -69.2679)" fill="#090909"/>
<rect width="1" height="1131" transform="matrix(-0.707107 -0.707107 -0.707107 0.707107 301.339 -72.8035)" fill="#8A4C29"/>
<rect width="5" height="1131" transform="matrix(-0.707107 -0.707107 -0.707107 0.707107 300.631 -73.5106)" fill="#090909"/>
<rect width="1" height="1131" transform="matrix(-0.707107 -0.707107 -0.707107 0.707107 297.096 -77.0461)" fill="#8A4C29"/>
<rect width="5" height="1131" transform="matrix(-0.707107 -0.707107 -0.707107 0.707107 296.389 -77.7532)" fill="#090909"/>
<rect width="1" height="1131" transform="matrix(-0.707107 -0.707107 -0.707107 0.707107 292.853 -81.2887)" fill="#8A4C29"/>
<rect width="5" height="1131" transform="matrix(-0.707107 -0.707107 -0.707107 0.707107 292.146 -81.9958)" fill="#090909"/>
<rect width="1" height="1131" transform="matrix(-0.707107 -0.707107 -0.707107 0.707107 288.61 -85.5314)" fill="#8A4C29"/>
<rect width="5" height="1131" transform="matrix(-0.707107 -0.707107 -0.707107 0.707107 287.903 -86.2385)" fill="#090909"/>
<rect width="1" height="1131" transform="matrix(-0.707107 -0.707107 -0.707107 0.707107 284.368 -89.774)" fill="#8A4C29"/>
<rect width="5" height="1131" transform="matrix(-0.707107 -0.707107 -0.707107 0.707107 283.661 -90.4811)" fill="#090909"/>
<rect width="1" height="1131" transform="matrix(-0.707107 -0.707107 -0.707107 0.707107 280.125 -94.0167)" fill="#8A4C29"/>
<rect width="5" height="1131" transform="matrix(-0.707107 -0.707107 -0.707107 0.707107 279.418 -94.7238)" fill="#090909"/>
<rect width="1" height="1131" transform="matrix(-0.707107 -0.707107 -0.707107 0.707107 275.883 -98.2593)" fill="#8A4C29"/>
<rect width="5" height="1131" transform="matrix(-0.707107 -0.707107 -0.707107 0.707107 275.176 -98.9664)" fill="#090909"/>
<rect width="1" height="1131" transform="matrix(-0.707107 -0.707107 -0.707107 0.707107 271.64 -102.502)" fill="#8A4C29"/>
<rect width="5" height="1131" transform="matrix(-0.707107 -0.707107 -0.707107 0.707107 270.933 -103.209)" fill="#090909"/>
<rect width="1" height="1131" transform="matrix(-0.707107 -0.707107 -0.707107 0.707107 267.397 -106.745)" fill="#8A4C29"/>
<rect width="5" height="1131" transform="matrix(-0.707107 -0.707107 -0.707107 0.707107 266.69 -107.452)" fill="#090909"/>
<rect width="1" height="1131" transform="matrix(-0.707107 -0.707107 -0.707107 0.707107 263.155 -110.987)" fill="#8A4C29"/>
<rect width="5" height="1131" transform="matrix(-0.707107 -0.707107 -0.707107 0.707107 262.448 -111.694)" fill="#090909"/>
<rect width="1" height="1131" transform="matrix(-0.707107 -0.707107 -0.707107 0.707107 258.912 -115.23)" fill="#8A4C29"/>
<rect width="5" height="1131" transform="matrix(-0.707107 -0.707107 -0.707107 0.707107 258.205 -115.937)" fill="#090909"/>
<rect width="1" height="1131" transform="matrix(-0.707107 -0.707107 -0.707107 0.707107 254.669 -119.473)" fill="#8A4C29"/>
</g>
<path d="M267.139 55.6594H269.652V68.0959H266.594V59.6936C266.43 59.8635 266.242 60.0012 266.031 60.1067C265.826 60.2121 265.589 60.2854 265.319 60.3264C265.056 60.3674 264.839 60.3938 264.669 60.4055C264.499 60.4114 264.265 60.4143 263.966 60.4143V58.2522C264.534 58.2522 265.029 58.1819 265.451 58.0412C265.873 57.9006 266.201 57.7073 266.436 57.4612C266.676 57.2151 266.852 56.9426 266.963 56.6438C267.08 56.3391 267.139 56.011 267.139 55.6594ZM274.842 59.4739H271.968C271.968 58.2551 272.404 57.2678 273.277 56.5119C274.15 55.7502 275.363 55.3694 276.916 55.3694C277.502 55.3694 278.059 55.4455 278.586 55.5979C279.119 55.7502 279.591 55.967 280.001 56.2483C280.417 56.5295 280.748 56.8899 280.994 57.3293C281.24 57.7688 281.363 58.2551 281.363 58.7883C281.363 59.9836 280.763 60.8889 279.561 61.5041V61.5481C281.003 62.0051 281.724 63.0246 281.724 64.6067C281.724 65.4035 281.516 66.092 281.1 66.6721C280.689 67.2463 280.13 67.677 279.421 67.9641C278.712 68.2453 277.894 68.386 276.969 68.386C275.228 68.386 273.898 67.9817 272.978 67.1731C272.064 66.3645 271.607 65.2073 271.607 63.7014H274.481C274.481 64.4397 274.663 64.9934 275.026 65.3625C275.39 65.7317 275.964 65.9162 276.749 65.9162C277.382 65.9162 277.856 65.7873 278.173 65.5295C278.495 65.2659 278.656 64.8967 278.656 64.4221C278.656 63.842 278.463 63.4231 278.076 63.1653C277.689 62.9016 277.121 62.7698 276.371 62.7698H275.747V60.6604H276.301C277.637 60.6604 278.305 60.2063 278.305 59.2981C278.305 58.3254 277.763 57.8391 276.679 57.8391C276.151 57.8391 275.712 57.9739 275.36 58.2434C275.015 58.5071 274.842 58.9172 274.842 59.4739ZM286.5 62.5852C285.955 62.5852 285.466 62.4914 285.032 62.3039C284.604 62.1106 284.259 61.8469 283.995 61.5129C283.731 61.1789 283.529 60.7981 283.389 60.3703C283.254 59.9426 283.186 59.4827 283.186 58.9905C283.186 58.4924 283.254 58.0295 283.389 57.6018C283.529 57.1682 283.731 56.7844 283.995 56.4504C284.259 56.1164 284.604 55.8528 285.032 55.6594C285.466 55.466 285.955 55.3694 286.5 55.3694C287.051 55.3694 287.54 55.466 287.968 55.6594C288.395 55.8469 288.738 56.1106 288.996 56.4504C289.26 56.7844 289.459 57.1682 289.594 57.6018C289.728 58.0295 289.796 58.4924 289.796 58.9905C289.796 59.4885 289.728 59.9514 289.594 60.3791C289.459 60.801 289.26 61.1789 288.996 61.5129C288.738 61.8469 288.395 62.1106 287.968 62.3039C287.54 62.4914 287.051 62.5852 286.5 62.5852ZM294.814 55.6594L288.284 68.0959H286.482L293.013 55.6594H294.814ZM286.5 60.968C286.857 60.968 287.103 60.8157 287.238 60.511C287.379 60.2063 287.449 59.6994 287.449 58.9905C287.449 58.2815 287.379 57.7717 287.238 57.4612C287.103 57.1448 286.857 56.9866 286.5 56.9866C286.142 56.9866 285.891 57.1448 285.744 57.4612C285.598 57.7776 285.524 58.2873 285.524 58.9905C285.524 59.6936 285.595 60.2004 285.735 60.511C285.882 60.8157 286.137 60.968 286.5 60.968ZM294.814 68.386C294.269 68.386 293.78 68.2893 293.347 68.0959C292.919 67.9084 292.573 67.6477 292.309 67.3137C292.046 66.9797 291.844 66.5989 291.703 66.1711C291.568 65.7375 291.501 65.2746 291.501 64.7825C291.501 64.2844 291.568 63.8215 291.703 63.3938C291.844 62.9602 292.046 62.5764 292.309 62.2424C292.573 61.9084 292.919 61.6477 293.347 61.4602C293.78 61.2668 294.269 61.1702 294.814 61.1702C295.365 61.1702 295.854 61.2668 296.282 61.4602C296.71 61.6477 297.053 61.9084 297.31 62.2424C297.574 62.5764 297.773 62.9602 297.908 63.3938C298.043 63.8215 298.11 64.2844 298.11 64.7825C298.11 65.2805 298.043 65.7434 297.908 66.1711C297.773 66.593 297.574 66.9739 297.31 67.3137C297.053 67.6477 296.71 67.9084 296.282 68.0959C295.854 68.2893 295.365 68.386 294.814 68.386ZM294.814 66.76C295.172 66.76 295.421 66.6077 295.561 66.303C295.702 65.9983 295.772 65.4914 295.772 64.7825C295.772 64.0735 295.702 63.5637 295.561 63.2532C295.421 62.9426 295.172 62.7873 294.814 62.7873C294.451 62.7873 294.196 62.9455 294.05 63.2619C293.909 63.5725 293.839 64.0793 293.839 64.7825C293.839 65.4856 293.909 65.9924 294.05 66.303C294.196 66.6077 294.451 66.76 294.814 66.76Z" fill="white"/>
<path d="M272.859 82.4319C272.812 82.1923 272.742 81.9579 272.648 81.7287C272.56 81.4996 272.424 81.26 272.242 81.01C272.065 80.76 271.854 80.5438 271.609 80.3616C271.37 80.1741 271.06 80.0204 270.68 79.9006C270.305 79.7756 269.891 79.7131 269.438 79.7131C268.911 79.7131 268.43 79.8017 267.992 79.9787C267.56 80.1558 267.195 80.3928 266.898 80.6897C266.607 80.9866 266.359 81.3355 266.156 81.7366C265.953 82.1376 265.805 82.5595 265.711 83.0022C265.622 83.4397 265.578 83.8954 265.578 84.3694C265.578 84.8433 265.622 85.3017 265.711 85.7444C265.805 86.1871 265.953 86.6116 266.156 87.0178C266.359 87.4188 266.607 87.7678 266.898 88.0647C267.195 88.3616 267.56 88.5985 267.992 88.7756C268.43 88.9527 268.911 89.0412 269.438 89.0412C269.901 89.0412 270.323 88.9813 270.703 88.8616C271.083 88.7366 271.398 88.5751 271.648 88.3772C271.904 88.1793 272.12 87.9449 272.297 87.6741C272.479 87.4032 272.612 87.1272 272.695 86.8459C272.784 86.5647 272.839 86.273 272.859 85.9709H274.297C274.208 86.8199 273.961 87.5699 273.555 88.2209C273.148 88.872 272.589 89.385 271.875 89.76C271.167 90.135 270.354 90.3225 269.438 90.3225C268.406 90.3225 267.487 90.0673 266.68 89.5569C265.872 89.0465 265.247 88.3407 264.805 87.4397C264.362 86.5334 264.141 85.51 264.141 84.3694C264.141 83.234 264.362 82.2157 264.805 81.3147C265.247 80.4136 265.872 79.7079 266.68 79.1975C267.492 78.6871 268.411 78.4319 269.438 78.4319C270.12 78.4319 270.753 78.5386 271.336 78.7522C271.919 78.9605 272.414 79.2496 272.82 79.6194C273.227 79.984 273.557 80.4084 273.812 80.8928C274.068 81.372 274.229 81.885 274.297 82.4319H272.859ZM282.609 87.2287H277.57L276.562 90.0959H275.07L279.297 78.6584H280.898L285.109 90.0959H283.617L282.609 87.2287ZM278.047 85.9553H282.148L280.117 79.9866H280.086L278.047 85.9553ZM290.624 83.4241C291.093 83.5386 291.445 83.6298 291.679 83.6975C291.919 83.76 292.218 83.8537 292.577 83.9787C292.942 84.0985 293.213 84.2131 293.39 84.3225C293.567 84.4319 293.77 84.5777 293.999 84.76C294.229 84.9423 294.393 85.1402 294.492 85.3537C294.596 85.5621 294.684 85.8147 294.757 86.1116C294.835 86.4084 294.874 86.7392 294.874 87.1037C294.874 87.5308 294.794 87.9345 294.632 88.3147C294.471 88.6897 294.229 89.0308 293.906 89.3381C293.583 89.6402 293.15 89.8798 292.609 90.0569C292.067 90.234 291.447 90.3225 290.749 90.3225C289.354 90.3225 288.197 89.9631 287.281 89.2444C286.364 88.5256 285.867 87.5282 285.788 86.2522H287.226C287.268 86.6584 287.361 87.0256 287.507 87.3537C287.658 87.6819 287.869 87.9761 288.14 88.2366C288.416 88.4918 288.773 88.6897 289.21 88.8303C289.653 88.9709 290.166 89.0412 290.749 89.0412C291.676 89.0412 292.356 88.8616 292.788 88.5022C293.221 88.1376 293.437 87.6715 293.437 87.1037C293.437 86.9058 293.424 86.7287 293.398 86.5725C293.377 86.4162 293.33 86.273 293.257 86.1428C293.189 86.0074 293.117 85.8928 293.038 85.7991C292.96 85.7001 292.843 85.6063 292.687 85.5178C292.536 85.4241 292.387 85.3459 292.242 85.2834C292.096 85.2157 291.895 85.1454 291.64 85.0725C291.385 84.9944 291.143 84.9267 290.913 84.8694C290.689 84.8121 290.395 84.7418 290.031 84.6584C289.739 84.5907 289.486 84.5282 289.273 84.4709C289.064 84.4136 288.82 84.3355 288.538 84.2366C288.257 84.1376 288.018 84.036 287.82 83.9319C287.627 83.8225 287.424 83.6845 287.21 83.5178C287.002 83.3511 286.833 83.1741 286.702 82.9866C286.577 82.7938 286.473 82.5647 286.39 82.2991C286.307 82.0334 286.265 81.747 286.265 81.4397C286.265 80.523 286.606 79.7938 287.288 79.2522C287.976 78.7053 288.942 78.4319 290.187 78.4319C291.426 78.4319 292.432 78.7444 293.202 79.3694C293.979 79.9944 294.413 80.8876 294.507 82.0491H293.07C292.96 81.2678 292.674 80.6845 292.21 80.2991C291.747 79.9084 291.072 79.7131 290.187 79.7131C289.395 79.7131 288.783 79.8537 288.351 80.135C287.924 80.4162 287.71 80.7991 287.71 81.2834C287.71 81.5647 287.755 81.8095 287.843 82.0178C287.937 82.2261 288.049 82.3954 288.179 82.5256C288.314 82.6506 288.507 82.7678 288.757 82.8772C289.007 82.9866 289.242 83.0725 289.46 83.135C289.679 83.1923 289.968 83.2652 290.327 83.3537C290.458 83.385 290.557 83.4084 290.624 83.4241ZM296.843 78.6584H298.288V83.5178H304.397V78.6584H305.835V90.0959H304.397V84.7991H298.288V90.0959H296.843V78.6584Z" fill="white"/>
</g>
</g>
<defs>
<clipPath id="clip0_1_3374">
<rect width="321" height="117" fill="white" transform="translate(0 0.595932)"/>
</clipPath>
<clipPath id="clip1_1_3374">
<rect width="280" height="88" fill="white" transform="translate(-24.8311 29.4484)"/>
</clipPath>
<clipPath id="clip2_1_3374">
<rect width="1136" height="1131" fill="white" transform="translate(-426.337 431.216) rotate(-45)"/>
</clipPath>
<clipPath id="clip3_1_3374">
<rect width="150" height="88" fill="white" transform="matrix(-1 0 0 1 404 29.5959)"/>
</clipPath>
<clipPath id="clip4_1_3374">
<rect width="1136" height="1131" fill="white" transform="matrix(-0.707107 -0.707107 -0.707107 0.707107 805.506 431.364)"/>
</clipPath>
</defs>
</svg>
