<svg width="322" height="48" viewBox="0 0 322 48" fill="none" xmlns="http://www.w3.org/2000/svg">
<path d="M1.07031 16.5959V5.15843H5.71094C6.85156 5.15843 7.76562 5.44749 8.45312 6.02562C9.14062 6.60374 9.48438 7.39541 9.48438 8.40062C9.48438 9.2027 9.30469 9.84333 8.94531 10.3225C8.59115 10.7965 8.08854 11.1168 7.4375 11.2834V11.3147C7.83854 11.3928 8.17188 11.5751 8.4375 11.8616C8.70833 12.1428 8.89844 12.4683 9.00781 12.8381C9.1224 13.2027 9.21094 13.5959 9.27344 14.0178C9.33594 14.4397 9.36979 14.8277 9.375 15.1819C9.38542 15.536 9.41146 15.8381 9.45312 16.0881C9.49479 16.3329 9.5599 16.4709 9.64844 16.5022V16.5959H8.09375C8.02083 16.5282 7.97135 16.3616 7.94531 16.0959C7.92448 15.8251 7.91667 15.523 7.92188 15.1897C7.92708 14.8511 7.89844 14.4918 7.83594 14.1116C7.77865 13.7261 7.6875 13.3772 7.5625 13.0647C7.44271 12.7522 7.23177 12.4918 6.92969 12.2834C6.6276 12.0751 6.2474 11.9709 5.78906 11.9709H2.51562V16.5959H1.07031ZM2.51562 6.43968V10.6897H5.375C5.66146 10.6897 5.90885 10.6819 6.11719 10.6662C6.32552 10.6454 6.5599 10.5933 6.82031 10.51C7.08073 10.4267 7.29167 10.3147 7.45312 10.1741C7.61979 10.0282 7.76042 9.81989 7.875 9.54906C7.98958 9.27302 8.04688 8.94489 8.04688 8.56468C8.04688 8.18447 7.98958 7.85895 7.875 7.58812C7.76042 7.31208 7.61979 7.10374 7.45312 6.96312C7.29167 6.81729 7.08073 6.7027 6.82031 6.61937C6.5599 6.53604 6.32552 6.48656 6.11719 6.47093C5.90885 6.4501 5.66146 6.43968 5.375 6.43968H2.51562ZM11.8047 6.85374C11.612 6.85374 11.4297 6.78343 11.2578 6.64281C11.0911 6.49697 11.0078 6.30947 11.0078 6.08031C11.0078 5.85114 11.0911 5.66624 11.2578 5.52562C11.4245 5.38499 11.6068 5.31468 11.8047 5.31468C12.0078 5.31468 12.1901 5.38499 12.3516 5.52562C12.5182 5.66624 12.6016 5.85114 12.6016 6.08031C12.6016 6.30947 12.5182 6.49697 12.3516 6.64281C12.1901 6.78343 12.0078 6.85374 11.8047 6.85374ZM11.1641 8.43968H12.4453V16.5959H11.1641V8.43968ZM17.6797 11.7444C17.7422 11.76 17.8411 11.7834 17.9766 11.8147C18.3411 11.9032 18.6172 11.9735 18.8047 12.0256C18.9974 12.0777 19.2422 12.1715 19.5391 12.3069C19.8359 12.4371 20.0573 12.5829 20.2031 12.7444C20.3542 12.9006 20.487 13.1194 20.6016 13.4006C20.7214 13.6767 20.7812 13.9944 20.7812 14.3537C20.7812 15.0881 20.4792 15.6845 19.875 16.1428C19.2708 16.5959 18.5 16.8225 17.5625 16.8225C16.3594 16.8225 15.4479 16.5621 14.8281 16.0412C14.2083 15.5152 13.8776 14.7938 13.8359 13.8772H15.1172C15.1328 14.0855 15.1615 14.2678 15.2031 14.4241C15.2448 14.5751 15.3177 14.7366 15.4219 14.9084C15.5312 15.0803 15.6693 15.2209 15.8359 15.3303C16.0078 15.4345 16.2396 15.523 16.5312 15.5959C16.8229 15.6636 17.1667 15.6975 17.5625 15.6975C18.1979 15.6975 18.6797 15.5673 19.0078 15.3069C19.3359 15.0465 19.5 14.7574 19.5 14.4397C19.5 14.2938 19.4818 14.161 19.4453 14.0412C19.4089 13.9215 19.3646 13.8199 19.3125 13.7366C19.2656 13.6532 19.1927 13.5777 19.0938 13.51C18.9948 13.4371 18.9036 13.3798 18.8203 13.3381C18.7422 13.2912 18.6276 13.247 18.4766 13.2053C18.3255 13.1584 18.2005 13.1246 18.1016 13.1037C18.0078 13.0777 17.8672 13.0438 17.6797 13.0022C17.4974 12.9605 17.3568 12.9267 17.2578 12.9006C17.1589 12.8746 16.9948 12.8381 16.7656 12.7912C16.5417 12.7444 16.3646 12.7053 16.2344 12.6741C16.1094 12.6428 15.9427 12.5933 15.7344 12.5256C15.526 12.4579 15.3594 12.3902 15.2344 12.3225C15.1094 12.2548 14.9688 12.1636 14.8125 12.0491C14.6615 11.9345 14.5443 11.8095 14.4609 11.6741C14.3776 11.5386 14.3047 11.3746 14.2422 11.1819C14.1849 10.984 14.1562 10.7678 14.1562 10.5334C14.1562 9.87197 14.4323 9.31989 14.9844 8.87718C15.5365 8.43447 16.2786 8.21312 17.2109 8.21312C18.1849 8.21312 18.9531 8.45531 19.5156 8.93968C20.0781 9.41885 20.3932 10.0308 20.4609 10.7756H19.1797C19.1484 10.6246 19.112 10.4944 19.0703 10.385C19.0339 10.2704 18.9688 10.1428 18.875 10.0022C18.7812 9.86156 18.6667 9.74697 18.5312 9.65843C18.401 9.56468 18.2214 9.48656 17.9922 9.42406C17.7682 9.36156 17.5078 9.33031 17.2109 9.33031C16.6536 9.33031 16.2188 9.43447 15.9062 9.64281C15.5938 9.84593 15.4375 10.1116 15.4375 10.4397C15.4375 10.5959 15.4688 10.734 15.5312 10.8537C15.599 10.9735 15.6719 11.0699 15.75 11.1428C15.8333 11.2157 15.9635 11.286 16.1406 11.3537C16.3229 11.4215 16.4688 11.4709 16.5781 11.5022C16.6927 11.5282 16.8776 11.5699 17.1328 11.6272C17.388 11.6793 17.5703 11.7183 17.6797 11.7444ZM22.0234 5.15843H23.2969V11.9397L27.0469 8.43968H28.6484L25.4609 11.4631L28.9844 16.5959H27.4609L24.5625 12.2131L23.2969 13.3772V16.5959H22.0234V5.15843ZM35.5781 4.51781H36.7031C36.0781 5.62718 35.5964 6.73135 35.2578 7.83031C34.9193 8.92927 34.75 10.161 34.75 11.5256C34.75 12.8642 34.9193 14.0803 35.2578 15.1741C35.6016 16.2626 36.0833 17.3616 36.7031 18.4709H35.5781C34.901 17.5959 34.3516 16.5621 33.9297 15.3694C33.513 14.1767 33.3047 12.8954 33.3047 11.5256C33.3047 10.1142 33.513 8.81468 33.9297 7.62718C34.3464 6.43447 34.8958 5.39802 35.5781 4.51781ZM44.2188 11.1116C43.9479 11.6272 43.5495 12.0308 43.0234 12.3225C42.4974 12.609 41.9089 12.7522 41.2578 12.7522C40.1953 12.7522 39.3307 12.4188 38.6641 11.7522C38.0026 11.0855 37.6719 10.2053 37.6719 9.11156C37.6719 8.42406 37.8203 7.79645 38.1172 7.22874C38.4193 6.65583 38.8646 6.19489 39.4531 5.84593C40.0469 5.49177 40.7318 5.31468 41.5078 5.31468C42.2474 5.31468 42.8854 5.44749 43.4219 5.71312C43.9635 5.97874 44.3958 6.36677 44.7188 6.87718C45.0417 7.3876 45.2786 7.98916 45.4297 8.68187C45.5807 9.36937 45.6562 10.1662 45.6562 11.0725C45.6562 12.9215 45.2969 14.3433 44.5781 15.3381C43.8646 16.3277 42.8255 16.8225 41.4609 16.8225C40.4714 16.8225 39.6615 16.5308 39.0312 15.9475C38.401 15.3642 38.0443 14.648 37.9609 13.7991H39.3984C39.4714 14.3511 39.6797 14.7808 40.0234 15.0881C40.3724 15.3902 40.8516 15.5412 41.4609 15.5412C41.8307 15.5412 42.1615 15.4866 42.4531 15.3772C42.75 15.2626 42.9948 15.1011 43.1875 14.8928C43.3854 14.6793 43.5521 14.4423 43.6875 14.1819C43.8229 13.9215 43.9271 13.6168 44 13.2678C44.0729 12.9188 44.125 12.5777 44.1562 12.2444C44.1927 11.911 44.2135 11.5438 44.2188 11.1428V11.1116ZM41.5078 6.59593C40.7526 6.59593 40.1641 6.81208 39.7422 7.24437C39.3203 7.67666 39.1094 8.2652 39.1094 9.00999C39.1094 9.78604 39.3203 10.3928 39.7422 10.8303C40.1641 11.2626 40.7109 11.4787 41.3828 11.4787C42.1797 11.4787 42.8229 11.2496 43.3125 10.7912C43.8073 10.3277 44.0547 9.72354 44.0547 8.97874C44.0547 8.25999 43.8281 7.68447 43.375 7.25218C42.9219 6.81468 42.2995 6.59593 41.5078 6.59593ZM51.7812 5.15843L47.3516 16.5959H46.0703L50.5 5.15843H51.7812ZM55.1406 5.54124H56.2578V16.5959H54.8203V8.32249C54.6901 8.44749 54.5521 8.55166 54.4062 8.63499C54.2656 8.71833 54.1354 8.78343 54.0156 8.83031C53.8958 8.87197 53.7396 8.90322 53.5469 8.92406C53.3594 8.94489 53.2031 8.95791 53.0781 8.96312C52.9583 8.96312 52.7708 8.96312 52.5156 8.96312V7.92406C52.9896 7.92406 53.3906 7.86937 53.7188 7.75999C54.0469 7.65062 54.3073 7.48656 54.5 7.26781C54.6927 7.04385 54.8359 6.79645 54.9297 6.52562C55.0286 6.25479 55.099 5.92666 55.1406 5.54124ZM64.0625 16.5256C63.5833 16.7235 63.0495 16.8225 62.4609 16.8225C61.8724 16.8225 61.3385 16.7235 60.8594 16.5256C60.3802 16.3277 59.9766 16.0543 59.6484 15.7053C59.3255 15.3563 59.0521 14.9397 58.8281 14.4553C58.6094 13.9657 58.4505 13.4397 58.3516 12.8772C58.2526 12.3147 58.2031 11.7131 58.2031 11.0725C58.2031 10.4319 58.2526 9.83031 58.3516 9.26781C58.4505 8.70531 58.6094 8.18187 58.8281 7.69749C59.0521 7.20791 59.3255 6.78864 59.6484 6.43968C59.9766 6.09072 60.3802 5.81729 60.8594 5.61937C61.3385 5.41624 61.8724 5.31468 62.4609 5.31468C63.0495 5.31468 63.5833 5.41624 64.0625 5.61937C64.5417 5.81729 64.9427 6.09072 65.2656 6.43968C65.5938 6.78864 65.8672 7.20791 66.0859 7.69749C66.3099 8.18187 66.4714 8.70531 66.5703 9.26781C66.6693 9.83031 66.7188 10.4319 66.7188 11.0725C66.7188 11.7131 66.6693 12.3147 66.5703 12.8772C66.4714 13.4397 66.3099 13.9657 66.0859 14.4553C65.8672 14.9397 65.5938 15.3563 65.2656 15.7053C64.9427 16.0543 64.5417 16.3277 64.0625 16.5256ZM62.4609 15.5412C62.9714 15.5412 63.4115 15.4215 63.7812 15.1819C64.1562 14.9423 64.4479 14.609 64.6562 14.1819C64.8698 13.7548 65.026 13.286 65.125 12.7756C65.224 12.26 65.2734 11.6923 65.2734 11.0725C65.2734 10.4527 65.224 9.8876 65.125 9.37718C65.026 8.86156 64.8698 8.3902 64.6562 7.96312C64.4479 7.53604 64.1562 7.2027 63.7812 6.96312C63.4115 6.71833 62.9714 6.59593 62.4609 6.59593C61.9505 6.59593 61.5078 6.71833 61.1328 6.96312C60.7578 7.2027 60.4635 7.53604 60.25 7.96312C60.0417 8.3902 59.888 8.86156 59.7891 9.37718C59.6901 9.89281 59.6406 10.4579 59.6406 11.0725C59.6406 11.5621 59.6693 12.0204 59.7266 12.4475C59.7891 12.8694 59.888 13.273 60.0234 13.6584C60.1641 14.0438 60.3411 14.3746 60.5547 14.6506C60.7682 14.9215 61.0365 15.1376 61.3594 15.2991C61.6823 15.4605 62.0495 15.5412 62.4609 15.5412ZM68.7344 4.51781C69.4167 5.39802 69.9661 6.43447 70.3828 7.62718C70.7995 8.81468 71.0078 10.1142 71.0078 11.5256C71.0078 12.8954 70.7969 14.1767 70.375 15.3694C69.9583 16.5621 69.4115 17.5959 68.7344 18.4709H67.6172C68.237 17.3616 68.7161 16.2626 69.0547 15.1741C69.3984 14.0803 69.5703 12.8642 69.5703 11.5256C69.5703 10.161 69.401 8.92927 69.0625 7.83031C68.724 6.73135 68.2422 5.62718 67.6172 4.51781H68.7344Z" fill="#EDEDED"/>
<rect x="1" y="34.5959" width="321" height="9" rx="4.5" fill="#393939"/>
<rect y="34.5959" width="269" height="9" rx="4.5" fill="#8A4C29"/>
<rect x="261.667" y="29.5959" width="12.9634" height="12.9634" rx="2" transform="rotate(45 261.667 29.5959)" fill="#EE9020"/>
</svg>
