<svg width="280" height="88" viewBox="0 0 280 88" fill="none" xmlns="http://www.w3.org/2000/svg">
<g clip-path="url(#clip0_1_3379)">
<rect width="280" height="88" fill="white"/>
<g clip-path="url(#clip1_1_3379)">
<rect width="1" height="1131" transform="translate(-88.2573 88.5194) rotate(-45)" fill="#4B4844"/>
<rect width="5" height="1131" transform="translate(-87.5502 87.8123) rotate(-45)" fill="#090909"/>
<rect width="1" height="1131" transform="translate(-84.0146 84.2768) rotate(-45)" fill="#4B4844"/>
<rect width="5" height="1131" transform="translate(-83.3075 83.5697) rotate(-45)" fill="#090909"/>
<rect width="1" height="1131" transform="translate(-79.772 80.0341) rotate(-45)" fill="#4B4844"/>
<rect width="5" height="1131" transform="translate(-79.0649 79.3271) rotate(-45)" fill="#090909"/>
<rect width="1" height="1131" transform="translate(-75.5294 75.7915) rotate(-45)" fill="#4B4844"/>
<rect width="5" height="1131" transform="translate(-74.8223 75.0844) rotate(-45)" fill="#090909"/>
<rect width="1" height="1131" transform="translate(-71.2867 71.5489) rotate(-45)" fill="#4B4844"/>
<rect width="5" height="1131" transform="translate(-70.5796 70.8418) rotate(-45)" fill="#090909"/>
<rect width="1" height="1131" transform="translate(-67.0441 67.3062) rotate(-45)" fill="#4B4844"/>
<rect width="5" height="1131" transform="translate(-66.337 66.5991) rotate(-45)" fill="#090909"/>
<rect width="1" height="1131" transform="translate(-62.8014 63.0636) rotate(-45)" fill="#4B4844"/>
<rect width="5" height="1131" transform="translate(-62.0944 62.3565) rotate(-45)" fill="#090909"/>
<rect width="1" height="1131" transform="translate(-58.5588 58.821) rotate(-45)" fill="#4B4844"/>
<rect width="5" height="1131" transform="translate(-57.8517 58.1138) rotate(-45)" fill="#090909"/>
<rect width="1" height="1131" transform="translate(-54.3162 54.5783) rotate(-45)" fill="#4B4844"/>
<rect width="5" height="1131" transform="translate(-53.609 53.8712) rotate(-45)" fill="#090909"/>
<rect width="1" height="1131" transform="translate(-50.0735 50.3357) rotate(-45)" fill="#4B4844"/>
<rect width="5" height="1131" transform="translate(-49.3665 49.6286) rotate(-45)" fill="#090909"/>
<rect width="1" height="1131" transform="translate(-45.8309 46.093) rotate(-45)" fill="#4B4844"/>
<rect width="5" height="1131" transform="translate(-45.1238 45.3859) rotate(-45)" fill="#090909"/>
<rect width="1" height="1131" transform="translate(-41.5883 41.8504) rotate(-45)" fill="#4B4844"/>
<rect width="5" height="1131" transform="translate(-40.8811 41.1433) rotate(-45)" fill="#090909"/>
<rect width="1" height="1131" transform="translate(-37.3456 37.6078) rotate(-45)" fill="#4B4844"/>
<rect width="5" height="1131" transform="translate(-36.6385 36.9006) rotate(-45)" fill="#090909"/>
<rect width="1" height="1131" transform="translate(-33.1029 33.3651) rotate(-45)" fill="#4B4844"/>
<rect width="5" height="1131" transform="translate(-32.3959 32.658) rotate(-45)" fill="#090909"/>
<rect width="1" height="1131" transform="translate(-28.8604 29.1225) rotate(-45)" fill="#4B4844"/>
<rect width="5" height="1131" transform="translate(-28.1532 28.4153) rotate(-45)" fill="#090909"/>
<rect width="1" height="1131" transform="translate(-24.6177 24.8798) rotate(-45)" fill="#4B4844"/>
<rect width="5" height="1131" transform="translate(-23.9105 24.1727) rotate(-45)" fill="#090909"/>
<rect width="1" height="1131" transform="translate(-20.375 20.6372) rotate(-45)" fill="#4B4844"/>
<rect width="5" height="1131" transform="translate(-19.668 19.9301) rotate(-45)" fill="#090909"/>
<rect width="1" height="1131" transform="translate(-16.1324 16.3945) rotate(-45)" fill="#4B4844"/>
<rect width="5" height="1131" transform="translate(-15.4253 15.6874) rotate(-45)" fill="#090909"/>
<rect width="1" height="1131" transform="translate(-11.8898 12.1519) rotate(-45)" fill="#4B4844"/>
<rect width="5" height="1131" transform="translate(-11.1826 11.4448) rotate(-45)" fill="#090909"/>
<rect width="1" height="1131" transform="translate(-7.64709 7.90927) rotate(-45)" fill="#4B4844"/>
<rect width="5" height="1131" transform="translate(-6.94006 7.20215) rotate(-45)" fill="#090909"/>
<rect width="1" height="1131" transform="translate(-3.40442 3.66663) rotate(-45)" fill="#4B4844"/>
<rect width="5" height="1131" transform="translate(-2.69739 2.9595) rotate(-45)" fill="#090909"/>
<rect width="1" height="1131" transform="translate(0.838135 -0.576019) rotate(-45)" fill="#4B4844"/>
<rect width="5" height="1131" transform="translate(1.54529 -1.28314) rotate(-45)" fill="#090909"/>
<rect width="1" height="1131" transform="translate(5.08081 -4.81866) rotate(-45)" fill="#4B4844"/>
<rect width="5" height="1131" transform="translate(5.78796 -5.52576) rotate(-45)" fill="#090909"/>
<rect width="1" height="1131" transform="translate(9.32349 -9.06131) rotate(-45)" fill="#4B4844"/>
<rect width="5" height="1131" transform="translate(10.0305 -9.7684) rotate(-45)" fill="#090909"/>
<rect width="1" height="1131" transform="translate(13.566 -13.304) rotate(-45)" fill="#4B4844"/>
<rect width="5" height="1131" transform="translate(14.2732 -14.011) rotate(-45)" fill="#090909"/>
<rect width="1" height="1131" transform="translate(17.8087 -17.5466) rotate(-45)" fill="#4B4844"/>
<rect width="5" height="1131" transform="translate(18.5159 -18.2537) rotate(-45)" fill="#090909"/>
<rect width="1" height="1131" transform="translate(22.0514 -21.7892) rotate(-45)" fill="#4B4844"/>
<rect width="5" height="1131" transform="translate(22.7584 -22.4963) rotate(-45)" fill="#090909"/>
<rect width="1" height="1131" transform="translate(26.2941 -26.0319) rotate(-45)" fill="#4B4844"/>
<rect width="5" height="1131" transform="translate(27.0011 -26.739) rotate(-45)" fill="#090909"/>
<rect width="1" height="1131" transform="translate(30.5366 -30.2745) rotate(-45)" fill="#4B4844"/>
<rect width="5" height="1131" transform="translate(31.2438 -30.9816) rotate(-45)" fill="#090909"/>
<rect width="1" height="1131" transform="translate(34.7793 -34.5172) rotate(-45)" fill="#4B4844"/>
<rect width="5" height="1131" transform="translate(35.4865 -35.2243) rotate(-45)" fill="#090909"/>
<rect width="1" height="1131" transform="translate(39.022 -38.7598) rotate(-45)" fill="#4B4844"/>
<rect width="5" height="1131" transform="translate(39.729 -39.4669) rotate(-45)" fill="#090909"/>
<rect width="1" height="1131" transform="translate(43.2645 -43.0024) rotate(-45)" fill="#4B4844"/>
<rect width="5" height="1131" transform="translate(43.9717 -43.7095) rotate(-45)" fill="#090909"/>
<rect width="1" height="1131" transform="translate(47.5072 -47.2451) rotate(-45)" fill="#4B4844"/>
<rect width="5" height="1131" transform="translate(48.2144 -47.9522) rotate(-45)" fill="#090909"/>
<rect width="1" height="1131" transform="translate(51.7499 -51.4877) rotate(-45)" fill="#4B4844"/>
<rect width="5" height="1131" transform="translate(52.4569 -52.1948) rotate(-45)" fill="#090909"/>
<rect width="1" height="1131" transform="translate(55.9926 -55.7303) rotate(-45)" fill="#4B4844"/>
<rect width="5" height="1131" transform="translate(56.6996 -56.4375) rotate(-45)" fill="#090909"/>
<rect width="1" height="1131" transform="translate(60.2351 -59.973) rotate(-45)" fill="#4B4844"/>
<rect width="5" height="1131" transform="translate(60.9423 -60.6801) rotate(-45)" fill="#090909"/>
<rect width="1" height="1131" transform="translate(64.4778 -64.2156) rotate(-45)" fill="#4B4844"/>
<rect width="5" height="1131" transform="translate(65.1849 -64.9228) rotate(-45)" fill="#090909"/>
<rect width="1" height="1131" transform="translate(68.7205 -68.4583) rotate(-45)" fill="#4B4844"/>
<rect width="5" height="1131" transform="translate(69.4275 -69.1654) rotate(-45)" fill="#090909"/>
<rect width="1" height="1131" transform="translate(72.963 -72.7009) rotate(-45)" fill="#4B4844"/>
<rect width="5" height="1131" transform="translate(73.6702 -73.408) rotate(-45)" fill="#090909"/>
<rect width="1" height="1131" transform="translate(77.2057 -76.9436) rotate(-45)" fill="#4B4844"/>
<rect width="5" height="1131" transform="translate(77.9128 -77.6507) rotate(-45)" fill="#090909"/>
<rect width="1" height="1131" transform="translate(81.4484 -81.1862) rotate(-45)" fill="#4B4844"/>
<rect width="5" height="1131" transform="translate(82.1554 -81.8933) rotate(-45)" fill="#090909"/>
<rect width="1" height="1131" transform="translate(85.691 -85.4288) rotate(-45)" fill="#4B4844"/>
<rect width="5" height="1131" transform="translate(86.3981 -86.136) rotate(-45)" fill="#090909"/>
<rect width="1" height="1131" transform="translate(89.9336 -89.6715) rotate(-45)" fill="#4B4844"/>
<rect width="5" height="1131" transform="translate(90.6407 -90.3786) rotate(-45)" fill="#090909"/>
<rect width="1" height="1131" transform="translate(94.1763 -93.9141) rotate(-45)" fill="#4B4844"/>
<rect width="5" height="1131" transform="translate(94.8834 -94.6212) rotate(-45)" fill="#090909"/>
<rect width="1" height="1131" transform="translate(98.4189 -98.1568) rotate(-45)" fill="#4B4844"/>
<rect width="5" height="1131" transform="translate(99.126 -98.8639) rotate(-45)" fill="#090909"/>
<rect width="1" height="1131" transform="translate(102.661 -102.399) rotate(-45)" fill="#4B4844"/>
<rect width="5" height="1131" transform="translate(103.369 -103.107) rotate(-45)" fill="#090909"/>
<rect width="1" height="1131" transform="translate(106.904 -106.642) rotate(-45)" fill="#4B4844"/>
<rect width="5" height="1131" transform="translate(107.611 -107.349) rotate(-45)" fill="#090909"/>
<rect width="1" height="1131" transform="translate(111.147 -110.885) rotate(-45)" fill="#4B4844"/>
<rect width="5" height="1131" transform="translate(111.854 -111.592) rotate(-45)" fill="#090909"/>
<rect width="1" height="1131" transform="translate(115.39 -115.127) rotate(-45)" fill="#4B4844"/>
<rect width="5" height="1131" transform="translate(116.097 -115.834) rotate(-45)" fill="#090909"/>
<rect width="1" height="1131" transform="translate(119.632 -119.37) rotate(-45)" fill="#4B4844"/>
<rect width="5" height="1131" transform="translate(120.339 -120.077) rotate(-45)" fill="#090909"/>
<rect width="1" height="1131" transform="translate(123.875 -123.613) rotate(-45)" fill="#4B4844"/>
<rect width="5" height="1131" transform="translate(124.582 -124.32) rotate(-45)" fill="#090909"/>
<rect width="1" height="1131" transform="translate(128.117 -127.855) rotate(-45)" fill="#4B4844"/>
<rect width="5" height="1131" transform="translate(128.824 -128.562) rotate(-45)" fill="#090909"/>
<rect width="1" height="1131" transform="translate(132.36 -132.098) rotate(-45)" fill="#4B4844"/>
<rect width="5" height="1131" transform="translate(133.067 -132.805) rotate(-45)" fill="#090909"/>
<rect width="1" height="1131" transform="translate(136.603 -136.341) rotate(-45)" fill="#4B4844"/>
<rect width="5" height="1131" transform="translate(137.31 -137.048) rotate(-45)" fill="#090909"/>
<rect width="1" height="1131" transform="translate(140.845 -140.583) rotate(-45)" fill="#4B4844"/>
<rect width="5" height="1131" transform="translate(141.552 -141.29) rotate(-45)" fill="#090909"/>
<rect width="1" height="1131" transform="translate(145.088 -144.826) rotate(-45)" fill="#4B4844"/>
<rect width="5" height="1131" transform="translate(145.795 -145.533) rotate(-45)" fill="#090909"/>
<rect width="1" height="1131" transform="translate(149.331 -149.068) rotate(-45)" fill="#4B4844"/>
<rect width="5" height="1131" transform="translate(150.038 -149.776) rotate(-45)" fill="#090909"/>
<rect width="1" height="1131" transform="translate(153.573 -153.311) rotate(-45)" fill="#4B4844"/>
<rect width="5" height="1131" transform="translate(154.28 -154.018) rotate(-45)" fill="#090909"/>
<rect width="1" height="1131" transform="translate(157.816 -157.554) rotate(-45)" fill="#4B4844"/>
<rect width="5" height="1131" transform="translate(158.523 -158.261) rotate(-45)" fill="#090909"/>
<rect width="1" height="1131" transform="translate(162.058 -161.796) rotate(-45)" fill="#4B4844"/>
<rect width="5" height="1131" transform="translate(162.766 -162.503) rotate(-45)" fill="#090909"/>
<rect width="1" height="1131" transform="translate(166.301 -166.039) rotate(-45)" fill="#4B4844"/>
<rect width="5" height="1131" transform="translate(167.008 -166.746) rotate(-45)" fill="#090909"/>
<rect width="1" height="1131" transform="translate(170.544 -170.282) rotate(-45)" fill="#4B4844"/>
<rect width="5" height="1131" transform="translate(171.251 -170.989) rotate(-45)" fill="#090909"/>
<rect width="1" height="1131" transform="translate(174.786 -174.524) rotate(-45)" fill="#4B4844"/>
<rect width="5" height="1131" transform="translate(175.494 -175.231) rotate(-45)" fill="#090909"/>
<rect width="1" height="1131" transform="translate(179.029 -178.767) rotate(-45)" fill="#4B4844"/>
<rect width="5" height="1131" transform="translate(179.736 -179.474) rotate(-45)" fill="#090909"/>
<rect width="1" height="1131" transform="translate(183.272 -183.01) rotate(-45)" fill="#4B4844"/>
<rect width="5" height="1131" transform="translate(183.979 -183.717) rotate(-45)" fill="#090909"/>
<rect width="1" height="1131" transform="translate(187.514 -187.252) rotate(-45)" fill="#4B4844"/>
<rect width="5" height="1131" transform="translate(188.221 -187.959) rotate(-45)" fill="#090909"/>
<rect width="1" height="1131" transform="translate(191.757 -191.495) rotate(-45)" fill="#4B4844"/>
<rect width="5" height="1131" transform="translate(192.464 -192.202) rotate(-45)" fill="#090909"/>
<rect width="1" height="1131" transform="translate(196 -195.738) rotate(-45)" fill="#4B4844"/>
<rect width="5" height="1131" transform="translate(196.707 -196.445) rotate(-45)" fill="#090909"/>
<rect width="1" height="1131" transform="translate(200.242 -199.98) rotate(-45)" fill="#4B4844"/>
<rect width="5" height="1131" transform="translate(200.949 -200.687) rotate(-45)" fill="#090909"/>
<rect width="1" height="1131" transform="translate(204.485 -204.223) rotate(-45)" fill="#4B4844"/>
<rect width="5" height="1131" transform="translate(205.192 -204.93) rotate(-45)" fill="#090909"/>
<rect width="1" height="1131" transform="translate(208.728 -208.465) rotate(-45)" fill="#4B4844"/>
<rect width="5" height="1131" transform="translate(209.435 -209.173) rotate(-45)" fill="#090909"/>
<rect width="1" height="1131" transform="translate(212.97 -212.708) rotate(-45)" fill="#4B4844"/>
<rect width="5" height="1131" transform="translate(213.677 -213.415) rotate(-45)" fill="#090909"/>
<rect width="1" height="1131" transform="translate(217.213 -216.951) rotate(-45)" fill="#4B4844"/>
<rect width="5" height="1131" transform="translate(217.92 -217.658) rotate(-45)" fill="#090909"/>
<rect width="1" height="1131" transform="translate(221.455 -221.193) rotate(-45)" fill="#4B4844"/>
<rect width="5" height="1131" transform="translate(222.163 -221.9) rotate(-45)" fill="#090909"/>
<rect width="1" height="1131" transform="translate(225.698 -225.436) rotate(-45)" fill="#4B4844"/>
<rect width="5" height="1131" transform="translate(226.405 -226.143) rotate(-45)" fill="#090909"/>
<rect width="1" height="1131" transform="translate(229.941 -229.679) rotate(-45)" fill="#4B4844"/>
<rect width="5" height="1131" transform="translate(230.648 -230.386) rotate(-45)" fill="#090909"/>
<rect width="1" height="1131" transform="translate(234.183 -233.921) rotate(-45)" fill="#4B4844"/>
<rect width="5" height="1131" transform="translate(234.891 -234.628) rotate(-45)" fill="#090909"/>
<rect width="1" height="1131" transform="translate(238.426 -238.164) rotate(-45)" fill="#4B4844"/>
<rect width="5" height="1131" transform="translate(239.133 -238.871) rotate(-45)" fill="#090909"/>
<rect width="1" height="1131" transform="translate(242.669 -242.407) rotate(-45)" fill="#4B4844"/>
<rect width="5" height="1131" transform="translate(243.376 -243.114) rotate(-45)" fill="#090909"/>
<rect width="1" height="1131" transform="translate(246.911 -246.649) rotate(-45)" fill="#4B4844"/>
<rect width="5" height="1131" transform="translate(247.618 -247.356) rotate(-45)" fill="#090909"/>
<rect width="1" height="1131" transform="translate(251.154 -250.892) rotate(-45)" fill="#4B4844"/>
<rect width="5" height="1131" transform="translate(251.861 -251.599) rotate(-45)" fill="#090909"/>
<rect width="1" height="1131" transform="translate(255.397 -255.134) rotate(-45)" fill="#4B4844"/>
<rect width="5" height="1131" transform="translate(256.104 -255.842) rotate(-45)" fill="#090909"/>
<rect width="1" height="1131" transform="translate(259.639 -259.377) rotate(-45)" fill="#4B4844"/>
<rect width="5" height="1131" transform="translate(260.346 -260.084) rotate(-45)" fill="#090909"/>
<rect width="1" height="1131" transform="translate(263.882 -263.62) rotate(-45)" fill="#4B4844"/>
<rect width="5" height="1131" transform="translate(264.589 -264.327) rotate(-45)" fill="#090909"/>
<rect width="1" height="1131" transform="translate(268.125 -267.862) rotate(-45)" fill="#4B4844"/>
<rect width="5" height="1131" transform="translate(268.832 -268.57) rotate(-45)" fill="#090909"/>
<rect width="1" height="1131" transform="translate(272.367 -272.105) rotate(-45)" fill="#4B4844"/>
<rect width="5" height="1131" transform="translate(273.074 -272.812) rotate(-45)" fill="#090909"/>
<rect width="1" height="1131" transform="translate(276.61 -276.348) rotate(-45)" fill="#4B4844"/>
<rect width="5" height="1131" transform="translate(277.317 -277.055) rotate(-45)" fill="#090909"/>
</g>
</g>
<defs>
<clipPath id="clip0_1_3379">
<rect width="280" height="88" fill="white"/>
</clipPath>
<clipPath id="clip1_1_3379">
<rect width="1136" height="1131" fill="white" transform="translate(-401.506 401.768) rotate(-45)"/>
</clipPath>
</defs>
</svg>
