<svg width="73" height="74" viewBox="0 0 73 74" fill="none" xmlns="http://www.w3.org/2000/svg">
<circle cx="36.5" cy="37" r="33.5405" fill="#343424" fill-opacity="0.6" stroke="#343424" stroke-width="5.91892"/>
<path d="M36.5 0.5C42.4605 0.5 48.3302 1.9597 53.5964 4.75155C58.8626 7.5434 63.3649 11.5824 66.71 16.5157C70.0551 21.449 72.1411 27.1265 72.7859 33.052C73.4306 38.9775 72.6143 44.9707 70.4085 50.508L64.959 48.3371C66.8103 43.6897 67.4954 38.6597 66.9543 33.6865C66.4132 28.7133 64.6624 23.9483 61.8549 19.8078C59.0474 15.6674 55.2686 12.2775 50.8488 9.93429C46.429 7.59112 41.5025 6.36602 36.5 6.36602V0.5Z" fill="#858561"/>
<path d="M23.2325 28.1455H25.1612V47.2297H22.6796V32.9469C22.4548 33.1627 22.2165 33.3425 21.9648 33.4864C21.722 33.6302 21.4972 33.7426 21.2904 33.8235C21.0836 33.8955 20.8139 33.9494 20.4812 33.9854C20.1575 34.0213 19.8877 34.0438 19.6719 34.0528C19.4651 34.0528 19.1415 34.0528 18.7009 34.0528V32.259C19.5191 32.259 20.2114 32.1646 20.7779 31.9758C21.3443 31.787 21.7939 31.5038 22.1266 31.1261C22.4593 30.7395 22.7065 30.3124 22.8684 29.8448C23.0392 29.3773 23.1606 28.8108 23.2325 28.1455ZM37.6098 27.4846L29.9626 47.2297H27.7507L35.3979 27.4846H37.6098ZM41.1434 33.864H38.6618C38.6618 32.0387 39.2597 30.5642 40.4556 29.4402C41.6604 28.3163 43.4003 27.7543 45.6751 27.7543C46.7811 27.7543 47.7926 27.9566 48.7097 28.3613C49.6268 28.7569 50.3731 29.3638 50.9486 30.182C51.524 30.9912 51.8118 31.9398 51.8118 33.0278C51.8118 34.952 50.8317 36.3052 48.8716 37.0874V37.1414C50.1663 37.492 51.0924 38.072 51.6499 38.8812C52.2164 39.6814 52.4996 40.6795 52.4996 41.8753C52.4996 43.7186 51.8927 45.1392 50.6788 46.1373C49.465 47.1263 47.8151 47.6209 45.7291 47.6209C43.3104 47.6209 41.4447 47.0229 40.1319 45.8271C38.8192 44.6222 38.1628 42.9363 38.1628 40.7694H40.6444C40.6444 43.8625 42.2764 45.409 45.5402 45.409C47.1407 45.409 48.2826 45.1168 48.966 44.5323C49.6583 43.9479 50.0045 43.0622 50.0045 41.8753C50.0045 39.5376 48.6603 38.3687 45.9718 38.3687H43.9353V36.1568H45.8639C46.9069 36.1568 47.7431 35.9006 48.3725 35.388C49.0019 34.8665 49.3166 34.0798 49.3166 33.0278C49.3166 32.1736 49.0109 31.4498 48.3995 30.8564C47.7971 30.2629 46.889 29.9662 45.6751 29.9662C42.654 29.9662 41.1434 31.2655 41.1434 33.864Z" fill="#F7DDB4"/>
</svg>
